<svg width="26" height="26" viewBox="0 0 26 26" fill="none" xmlns="http://www.w3.org/2000/svg">
<g id="icon">
<g id="Group 1166">
<circle id="Ellipse 2575" cx="13" cy="13" r="13" fill="#2494D3"/>
<path id="Subtract" d="M14.5926 6L15.067 5.84189L14.953 5.5H14.5926V6ZM11.4087 6V5.5H11.0483L10.9344 5.84189L11.4087 6ZM15.2856 8.07885L14.8112 8.23697L14.8805 8.44481L15.0803 8.53477L15.2856 8.07885ZM16.2562 8.63991L15.9637 9.04543L16.1416 9.17373L16.3564 9.12976L16.2562 8.63991ZM18.408 8.19956L18.8411 7.94956L18.6609 7.63747L18.3078 7.70971L18.408 8.19956ZM20 10.9569L20.3741 11.2886L20.6132 11.019L20.433 10.7069L20 10.9569ZM18.544 12.5988L18.1699 12.2671L18.0247 12.4309L18.0465 12.6488L18.544 12.5988ZM18.544 13.7257L18.0465 13.6757L18.0246 13.8936L18.1699 14.0574L18.544 13.7257ZM20.0002 15.3679L20.4332 15.6179L20.6134 15.3058L20.3743 15.0362L20.0002 15.3679ZM18.4082 18.1252L18.308 18.6151L18.6611 18.6873L18.8413 18.3752L18.4082 18.1252ZM16.2554 17.6847L16.3556 17.1948L16.1408 17.1509L15.9629 17.2791L16.2554 17.6847ZM15.287 18.2445L15.0816 17.7886L14.8819 17.8786L14.8126 18.0864L15.287 18.2445ZM14.5926 20.3276V20.8276H14.953L15.067 20.4857L14.5926 20.3276ZM11.4087 20.3276L10.9344 20.4857L11.0483 20.8276H11.4087V20.3276ZM10.7145 18.2449L11.1888 18.0868L11.1195 17.8789L10.9198 17.789L10.7145 18.2449ZM9.74028 17.6811L10.0331 17.2758L9.85516 17.1472L9.64004 17.1912L9.74028 17.6811ZM7.59195 18.1207L7.15894 18.3707L7.33913 18.6828L7.69219 18.6105L7.59195 18.1207ZM6 15.3634L5.6259 15.0316L5.3868 15.3013L5.56699 15.6134L6 15.3634ZM7.45618 13.7212L7.83029 14.0529L7.97541 13.8893L7.95372 13.6716L7.45618 13.7212ZM7.45613 12.6033L7.95367 12.6528L7.97534 12.4352L7.83023 12.2716L7.45613 12.6033ZM6.0002 10.9614L5.56718 10.7114L5.387 11.0235L5.6261 11.2932L6.0002 10.9614ZM7.59215 8.2041L7.69239 7.71425L7.33933 7.642L7.15914 7.9541L7.59215 8.2041ZM9.73945 8.64351L9.63921 9.13336L9.85439 9.17739L10.0324 9.04871L9.73945 8.64351ZM10.7159 8.07848L10.9211 8.53443L11.1209 8.44449L11.1902 8.2366L10.7159 8.07848ZM14.5926 5.5H11.4087V6.5H14.5926V5.5ZM15.7599 7.92074L15.067 5.84189L14.1183 6.15811L14.8112 8.23697L15.7599 7.92074ZM16.5487 8.23439C16.2194 7.99691 15.8653 7.79154 15.4908 7.62294L15.0803 8.53477C15.3927 8.67546 15.6885 8.84695 15.9637 9.04543L16.5487 8.23439ZM18.3078 7.70971L16.1559 8.15006L16.3564 9.12976L18.5083 8.68941L18.3078 7.70971ZM20.433 10.7069L18.8411 7.94956L17.975 8.44956L19.567 11.2069L20.433 10.7069ZM18.9181 12.9306L20.3741 11.2886L19.6259 10.6252L18.1699 12.2671L18.9181 12.9306ZM19.0721 13.162C19.0721 12.9552 19.0618 12.7506 19.0415 12.5489L18.0465 12.6488C18.0635 12.8174 18.0721 12.9886 18.0721 13.162H19.0721ZM19.0415 13.7757C19.0618 13.5737 19.0721 13.369 19.0721 13.162H18.0721C18.0721 13.3356 18.0634 13.5069 18.0465 13.6757L19.0415 13.7757ZM20.3743 15.0362L18.9181 13.394L18.1699 14.0574L19.6261 15.6996L20.3743 15.0362ZM18.8413 18.3752L20.4332 15.6179L19.5672 15.1179L17.9752 17.8752L18.8413 18.3752ZM16.1551 18.1745L18.308 18.6151L18.5085 17.6354L16.3556 17.1948L16.1551 18.1745ZM15.4924 18.7004C15.8659 18.532 16.2192 18.3271 16.5478 18.0903L15.9629 17.2791C15.6883 17.4771 15.3933 17.6482 15.0816 17.7886L15.4924 18.7004ZM15.067 20.4857L15.7613 18.4026L14.8126 18.0864L14.1183 20.1695L15.067 20.4857ZM11.4087 20.8276H14.5926V19.8276H11.4087V20.8276ZM10.2401 18.403L10.9344 20.4857L11.883 20.1695L11.1888 18.0868L10.2401 18.403ZM9.44742 18.0863C9.77776 18.3251 10.1332 18.5314 10.5091 18.7008L10.9198 17.789C10.6061 17.6477 10.3092 17.4753 10.0331 17.2758L9.44742 18.0863ZM7.69219 18.6105L9.84052 18.1709L9.64004 17.1912L7.49171 17.6308L7.69219 18.6105ZM5.56699 15.6134L7.15894 18.3707L8.02497 17.8707L6.43301 15.1134L5.56699 15.6134ZM7.08208 13.3895L5.6259 15.0316L6.3741 15.6951L7.83029 14.0529L7.08208 13.3895ZM6.92847 13.162C6.92847 13.3673 6.93868 13.5704 6.95865 13.7708L7.95372 13.6716C7.93703 13.5041 7.92847 13.3341 7.92847 13.162H6.92847ZM6.95859 12.5538C6.93866 12.754 6.92847 12.9569 6.92847 13.162H7.92847C7.92847 12.99 7.93702 12.8202 7.95367 12.6528L6.95859 12.5538ZM5.6261 11.2932L7.08203 12.9351L7.83023 12.2716L6.3743 10.6297L5.6261 11.2932ZM7.15914 7.9541L5.56718 10.7114L6.43321 11.2114L8.02516 8.4541L7.15914 7.9541ZM9.83969 8.15366L7.69239 7.71425L7.49191 8.69395L9.63921 9.13336L9.83969 8.15366ZM10.5107 7.62253C10.1338 7.79214 9.77756 7.99898 9.44651 8.23831L10.0324 9.04871C10.3091 8.84868 10.6066 8.67596 10.9211 8.53443L10.5107 7.62253ZM10.9344 5.84189L10.2415 7.92037L11.1902 8.2366L11.883 6.15811L10.9344 5.84189ZM13.1638 15.6197C14.519 15.6197 15.6176 14.5211 15.6176 13.1659H14.6176C14.6176 13.9688 13.9667 14.6197 13.1638 14.6197V15.6197ZM10.7101 13.1659C10.7101 14.5211 11.8087 15.6197 13.1638 15.6197V14.6197C12.361 14.6197 11.7101 13.9688 11.7101 13.1659H10.7101ZM13.1638 10.7122C11.8087 10.7122 10.7101 11.8108 10.7101 13.1659H11.7101C11.7101 12.363 12.361 11.7122 13.1638 11.7122V10.7122ZM15.6176 13.1659C15.6176 11.8108 14.519 10.7122 13.1638 10.7122V11.7122C13.9667 11.7122 14.6176 12.363 14.6176 13.1659H15.6176Z" fill="white"/>
</g>
</g>
</svg>
