<svg width="26" height="26" viewBox="0 0 26 26" fill="none" xmlns="http://www.w3.org/2000/svg">
<g id="icon">
<circle id="Ellipse 8" cx="13" cy="13" r="13" fill="#8B98C5"/>
<g id="Group 965">
<path id="Vector (Stroke)" fill-rule="evenodd" clip-rule="evenodd" d="M12.6892 5.17655C12.9475 4.9412 13.3437 4.94115 13.6022 5.17639C14.3542 5.80963 15.2062 6.30082 16.117 6.63427L16.1172 6.63436C17.0321 6.96972 18.0067 7.14443 18.9979 7.14443C19.3727 7.14443 19.6765 7.44826 19.6765 7.82305V13.4506C19.6765 17.3856 17.0946 20.8439 13.3423 21.9713C13.2151 22.0095 13.0794 22.0096 12.9522 21.9714C9.19802 20.8465 6.61621 17.3867 6.61621 13.4519V7.82429C6.61621 7.44949 6.92004 7.14567 7.29483 7.14567C9.2689 7.14567 11.1805 6.44811 12.6892 5.17655ZM13.1459 6.54737C11.6443 7.67779 9.84667 8.3483 7.97345 8.47922V13.4519C7.97345 16.7183 10.0726 19.5976 13.1467 20.61C16.2203 19.5954 18.3193 16.7169 18.3193 13.4506V8.4781C17.4029 8.41435 16.5046 8.22189 15.6504 7.90877C14.7575 7.58186 13.913 7.12442 13.1459 6.54737Z" fill="white"/>
<path id="Vector (Stroke)_2" fill-rule="evenodd" clip-rule="evenodd" d="M15.4681 10.8494C15.717 10.5693 16.146 10.544 16.4261 10.793C16.7063 11.0419 16.7315 11.4709 16.4826 11.751L15.9753 11.3002L15.4681 10.8494ZM12.7733 16.0153C12.7927 15.9897 12.8219 15.9526 12.8621 15.9031C12.9605 15.7816 13.1046 15.61 13.2819 15.4021C13.6355 14.9877 14.1086 14.4444 14.5836 13.9025C15.0582 13.3611 15.533 12.8232 15.8892 12.4205C16.0673 12.2192 16.2157 12.0517 16.3195 11.9347C16.3715 11.8761 16.4123 11.8302 16.44 11.7989L16.4826 11.751C16.4826 11.751 16.4826 11.751 15.9753 11.3002C15.4681 10.8494 15.4681 10.8494 15.4681 10.8494L15.4251 10.8977C15.3972 10.9292 15.3563 10.9753 15.3042 11.034C15.2 11.1515 15.0512 11.3194 14.8727 11.5212C14.5157 11.9248 14.0394 12.4643 13.563 13.0078C13.0871 13.5508 12.6091 14.0997 12.2495 14.5211C12.2184 14.5576 12.188 14.5933 12.1585 14.628C12.0412 14.4759 11.913 14.3079 11.7838 14.1374C11.5532 13.8328 11.3222 13.5241 11.1486 13.2914C11.0619 13.175 10.9897 13.0778 10.9392 13.0097C10.9139 12.9757 10.8941 12.9489 10.8806 12.9307L10.8601 12.903C10.8601 12.903 10.86 12.9029 10.3144 13.3064L10.8601 12.903C10.6372 12.6017 10.2122 12.538 9.91089 12.7608C9.60955 12.9837 9.54593 13.4086 9.76879 13.71L10.3144 13.3064C9.76879 13.71 9.76877 13.7099 9.76879 13.71L9.78994 13.7385C9.80365 13.7571 9.82372 13.7841 9.84923 13.8185C9.90025 13.8873 9.97308 13.9853 10.0605 14.1025C10.2351 14.3368 10.4684 14.6485 10.7019 14.9568C10.9346 15.2641 11.1708 15.5722 11.3502 15.7976C11.4384 15.9084 11.5202 16.0085 11.5836 16.0801C11.6103 16.1102 11.6549 16.1597 11.704 16.2026C11.7041 16.2027 11.7043 16.2029 11.7046 16.2032C11.7135 16.2112 11.8026 16.2924 11.9342 16.3402C11.9864 16.3592 12.2614 16.4545 12.5427 16.2697C12.6564 16.1949 12.7281 16.1035 12.7733 16.0153ZM12.85 15.6989C12.85 15.7637 12.8405 15.8182 12.8312 15.8564C12.8484 15.7829 12.85 15.7244 12.85 15.6989Z" fill="white"/>
</g>
</g>
</svg>
