<svg width="135" height="50" viewBox="0 0 135 50" fill="none" xmlns="http://www.w3.org/2000/svg">
<g id="Group 1261160046">
<path id="Rectangle 783" d="M0 19.7576C0 8.84577 8.84577 0 19.7576 0H115.242C126.154 0 135 8.84577 135 19.7576V19.7576C135 30.6694 126.154 39.5152 115.242 39.5152H77.3558C76.758 39.5152 76.1915 39.7826 75.8116 40.2441L67.7812 50L59.7509 40.2441C59.3709 39.7826 58.8045 39.5152 58.2067 39.5152H19.7576C8.84575 39.5152 0 30.6694 0 19.7576V19.7576Z" fill="#30385F" fill-opacity="0.9"/>
<path id="&#235;&#182;&#129;&#237;&#149;&#156;&#236;&#132;&#160;&#235;&#176;&#149;" d="M50.716 14.374H52.116V19.456H43.156V14.374H44.556V15.83H50.716V14.374ZM44.556 16.978V18.308H50.716V16.978H44.556ZM53.74 20.646V21.85H48.35V23.25H52.256V27.296H50.856V24.482H43.03V23.25H46.95V21.85H41.532V20.646H53.74ZM59.3434 15.452H62.4374V16.628H54.8354V15.452H57.9294V14.01H59.3434V15.452ZM65.2094 14.164V17.958H67.2254V19.232H65.2094V24.02H63.8094V14.164H65.2094ZM61.8634 19.834V20.044C61.8634 21.626 60.4494 22.494 58.6574 22.494C56.8514 22.494 55.4374 21.626 55.4374 20.044V19.834C55.4374 18.238 56.8514 17.398 58.6574 17.398C60.4494 17.398 61.8634 18.238 61.8634 19.834ZM56.8094 19.862V20.016C56.8094 20.828 57.6074 21.318 58.6574 21.318C59.6934 21.318 60.5054 20.828 60.5054 20.016V19.862C60.5054 19.064 59.6934 18.574 58.6574 18.574C57.6074 18.574 56.8094 19.064 56.8094 19.862ZM56.8794 23.558H58.2794V25.882H65.8814V27.156H56.8794V23.558ZM79.2128 23.894H77.8268V18.266H75.0128V17.02H77.8268V14.164H79.2128V23.894ZM75.3908 21.794L71.9888 19.064C71.3448 20.142 70.3648 21.094 69.0068 21.99L68.2228 20.912C70.5048 19.386 71.5408 17.734 71.5408 15.648V14.654H72.9128V15.648C72.9128 16.432 72.8008 17.16 72.5628 17.846L76.1888 20.744L75.3908 21.794ZM72.0168 23.082V25.882H79.7588V27.156H70.6308V23.082H72.0168ZM91.7602 17.006H93.7762V18.294H91.7602V21.528H90.3602V14.164H91.7602V17.006ZM86.5662 14.724H87.9102V20.884H81.5962V14.724H82.9402V16.572H86.5662V14.724ZM82.9402 17.804V19.666H86.5662V17.804H82.9402ZM90.3602 23.614H83.3042V22.34H91.7602V27.296H90.3602V23.614Z" fill="white"/>
</g>
</svg>
