<svg width="25" height="25" viewBox="0 0 25 25" fill="none" xmlns="http://www.w3.org/2000/svg">
<g id="&#236;&#149;&#140;&#235;&#166;&#188;2 1">
<path id="Vector" d="M19.8161 16.793H5.18506V18.731H19.8161V16.793Z" fill="white"/>
<path id="Vector_2" d="M5.18506 16.7935C5.18506 16.7935 6.67906 16.1435 6.81706 13.8805C6.91506 12.2775 7.28306 8.56549 7.72306 7.52149C8.29806 6.15849 8.89506 4.33749 12.6921 4.31749C14.0451 4.31049 16.2011 4.64549 17.3331 7.53649C17.9541 9.12049 18.1981 13.6295 18.3021 14.2705C18.4161 14.9695 19.0201 16.2145 19.8171 16.7925" fill="white"/>
<path id="Vector_3" d="M15.2049 19.584C14.9959 20.886 13.8669 21.882 12.5049 21.882C11.1439 21.882 10.0149 20.886 9.80591 19.584" fill="white"/>
<path id="Vector_4" d="M11.176 4.44616C11.176 3.71316 11.771 3.11816 12.504 3.11816C13.237 3.11816 13.832 3.71316 13.832 4.44616" fill="white"/>
</g>
</svg>
