<svg width="30" height="31" viewBox="0 0 30 31" fill="none" xmlns="http://www.w3.org/2000/svg">
<g id="&#236;&#132;&#164;&#236;&#160;&#149;">
<path id="icon" d="M17.741 3.5L18.4525 3.26283L18.2816 2.75H17.741V3.5ZM12.5188 3.5V2.75H11.9782L11.8073 3.26283L12.5188 3.5ZM18.8782 6.9117L18.1667 7.14887L18.2707 7.46072L18.5704 7.59563L18.8782 6.9117ZM20.4754 7.83524L20.0363 8.44331L20.3032 8.63601L20.6257 8.57001L20.4754 7.83524ZM23.9998 7.11402L24.6493 6.73902L24.379 6.27087L23.8494 6.37925L23.9998 7.11402ZM26.6109 11.6366L27.172 12.1342L27.5307 11.7297L27.2604 11.2616L26.6109 11.6366ZM24.2244 14.3278L23.6633 13.8302L23.4454 14.0759L23.4782 14.4026L24.2244 14.3278ZM24.2242 16.1741L23.4779 16.0992L23.4451 16.426L23.663 16.6717L24.2242 16.1741ZM26.6092 18.8637L27.2587 19.2387L27.529 18.7706L27.1703 18.3661L26.6092 18.8637ZM23.9981 23.3863L23.8477 24.1211L24.3773 24.2294L24.6476 23.7613L23.9981 23.3863ZM20.474 22.6651L20.6244 21.9304L20.302 21.8644L20.0351 22.057L20.474 22.6651ZM18.8785 23.5876L18.5706 22.9037L18.2709 23.0386L18.1669 23.3504L18.8785 23.5876ZM17.741 27V27.75H18.2816L18.4525 27.2372L17.741 27ZM12.5188 27L11.8073 27.2372L11.9782 27.75H12.5188V27ZM11.3807 23.5859L12.0923 23.3488L11.9884 23.0371L11.6889 22.9021L11.3807 23.5859ZM9.78802 22.6645L10.227 22.0564L9.96013 21.8637L9.63766 21.9297L9.78802 22.6645ZM6.25929 23.3866L5.60977 23.7616L5.88006 24.2297L6.40965 24.1214L6.25929 23.3866ZM3.64818 18.864L3.08703 18.3664L2.72838 18.7709L2.99866 19.239L3.64818 18.864ZM6.03822 16.1687L6.59937 16.6664L6.81712 16.4208L6.78451 16.0942L6.03822 16.1687ZM6.03797 14.3332L6.78427 14.4075L6.81678 14.0811L6.59912 13.8356L6.03797 14.3332ZM3.64648 11.6363L2.99697 11.2613L2.72668 11.7294L3.08533 12.1339L3.64648 11.6363ZM6.2576 7.11372L6.40796 6.37894L5.87836 6.27057L5.60808 6.73872L6.2576 7.11372ZM9.78667 7.83589L9.63631 8.57066L9.95886 8.63667L10.2258 8.44391L9.78667 7.83589ZM11.381 6.91338L11.6891 7.59717L11.9886 7.46221L12.0925 7.15055L11.381 6.91338ZM17.741 2.75H12.5188V4.25H17.741V2.75ZM19.5897 6.67453L18.4525 3.26283L17.0295 3.73717L18.1667 7.14887L19.5897 6.67453ZM20.9144 7.22717C20.3766 6.83885 19.7979 6.50316 19.186 6.22777L18.5704 7.59563C19.089 7.82903 19.5798 8.11371 20.0363 8.44331L20.9144 7.22717ZM23.8494 6.37925L20.325 7.10047L20.6257 8.57001L24.1501 7.84879L23.8494 6.37925ZM27.2604 11.2616L24.6493 6.73902L23.3503 7.48902L25.9614 12.0116L27.2604 11.2616ZM24.7856 14.8254L27.172 12.1342L26.0497 11.139L23.6633 13.8302L24.7856 14.8254ZM25.0204 15.2497C25.0204 14.9135 25.0036 14.581 24.9707 14.2531L23.4782 14.4026C23.5061 14.681 23.5204 14.9635 23.5204 15.2497H25.0204ZM24.9704 16.2491C25.0035 15.9202 25.0204 15.5868 25.0204 15.2497H23.5204C23.5204 15.5367 23.506 15.82 23.4779 16.0992L24.9704 16.2491ZM27.1703 18.3661L24.7853 15.6765L23.663 16.6717L26.048 19.3613L27.1703 18.3661ZM24.6476 23.7613L27.2587 19.2387L25.9597 18.4887L23.3486 23.0113L24.6476 23.7613ZM20.3237 23.3999L23.8477 24.1211L24.1484 22.6515L20.6244 21.9304L20.3237 23.3999ZM19.1863 24.2715C19.7975 23.9964 20.3756 23.6611 20.9129 23.2733L20.0351 22.057C19.579 22.3862 19.0887 22.6705 18.5706 22.9037L19.1863 24.2715ZM18.4525 27.2372L19.59 23.8248L18.1669 23.3504L17.0295 26.7628L18.4525 27.2372ZM12.5188 27.75H17.741V26.25H12.5188V27.75ZM10.6692 23.8231L11.8073 27.2372L13.2303 26.7628L12.0923 23.3488L10.6692 23.8231ZM9.34902 23.2726C9.88546 23.6599 10.4625 23.9948 11.0726 24.2697L11.6889 22.9021C11.1718 22.6691 10.6823 22.3851 10.227 22.0564L9.34902 23.2726ZM6.40965 24.1214L9.93838 23.3993L9.63766 21.9297L6.10893 22.6518L6.40965 24.1214ZM2.99866 19.239L5.60977 23.7616L6.90881 23.0116L4.2977 18.489L2.99866 19.239ZM5.47707 15.6711L3.08703 18.3664L4.20933 19.3616L6.59937 16.6664L5.47707 15.6711ZM5.24258 15.2497C5.24258 15.5848 5.25928 15.9163 5.29193 16.2433L6.78451 16.0942C6.75679 15.8167 6.74258 15.535 6.74258 15.2497H5.24258ZM5.29166 14.2589C5.25919 14.585 5.24258 14.9155 5.24258 15.2497H6.74258C6.74258 14.9652 6.75671 14.6843 6.78427 14.4075L5.29166 14.2589ZM3.08533 12.1339L5.47681 14.8308L6.59912 13.8356L4.20764 11.1387L3.08533 12.1339ZM5.60808 6.73872L2.99697 11.2613L4.296 12.0113L6.90711 7.48872L5.60808 6.73872ZM9.93703 7.10111L6.40796 6.37894L6.10723 7.84849L9.63631 8.57066L9.93703 7.10111ZM11.0729 6.2296C10.4621 6.50481 9.88449 6.84011 9.34757 7.22787L10.2258 8.44391C10.6815 8.11478 11.1714 7.83042 11.6891 7.59717L11.0729 6.2296ZM11.8073 3.26283L10.6695 6.67621L12.0925 7.15055L13.2303 3.73717L11.8073 3.26283ZM15.3975 19.2046C17.5815 19.2046 19.352 17.4341 19.352 15.25H17.852C17.852 16.6056 16.7531 17.7046 15.3975 17.7046V19.2046ZM11.443 15.25C11.443 17.4341 13.2135 19.2046 15.3975 19.2046V17.7046C14.0419 17.7046 12.943 16.6056 12.943 15.25H11.443ZM15.3975 11.2955C13.2135 11.2955 11.443 13.066 11.443 15.25H12.943C12.943 13.8944 14.0419 12.7955 15.3975 12.7955V11.2955ZM19.352 15.25C19.352 13.066 17.5815 11.2955 15.3975 11.2955V12.7955C16.7531 12.7955 17.852 13.8944 17.852 15.25H19.352Z" fill="white"/>
</g>
</svg>
