<svg width="26" height="26" viewBox="0 0 26 26" fill="none" xmlns="http://www.w3.org/2000/svg">
<g id="icon">
<circle id="Ellipse 8" cx="13" cy="13" r="13" fill="#8B98C5"/>
<path id="warn" d="M12.844 13.1738V9.63769C12.844 9.48139 12.9059 9.33148 13.0162 9.22096C13.1265 9.11043 13.2761 9.04834 13.4321 9.04834C13.5881 9.04834 13.7377 9.11043 13.848 9.22096C13.9583 9.33148 14.0202 9.48139 14.0202 9.63769V13.1738C14.0202 13.3301 13.9583 13.48 13.848 13.5906C13.7377 13.7011 13.5881 13.7632 13.4321 13.7632C13.2761 13.7632 13.1265 13.7011 13.0162 13.5906C12.9059 13.48 12.844 13.3301 12.844 13.1738ZM21.4281 18.1819C21.2747 18.4522 21.0523 18.6766 20.7837 18.8321C20.515 18.9877 20.2099 19.0687 19.8997 19.0668H6.96454C6.65467 19.0668 6.35026 18.985 6.08195 18.8297C5.81364 18.6743 5.59088 18.4509 5.43609 18.1819C5.2813 17.9129 5.19994 17.6078 5.2002 17.2973C5.20045 16.9868 5.28231 16.6818 5.43753 16.413L11.9051 5.21584C12.0601 4.94752 12.2827 4.72475 12.5508 4.56988C12.8188 4.41502 13.1227 4.3335 13.4321 4.3335C13.7415 4.3335 14.0454 4.41502 14.3134 4.56988C14.5815 4.72475 14.8041 4.94752 14.9591 5.21584L21.4267 16.413C21.5837 16.6811 21.6666 16.9864 21.6669 17.2973C21.6671 17.6082 21.5847 17.9135 21.4281 18.1819ZM20.4087 17.0035L13.9411 5.80631C13.8894 5.71687 13.8152 5.64262 13.7259 5.591C13.6365 5.53938 13.5352 5.51221 13.4321 5.51221C13.329 5.51221 13.2277 5.53938 13.1383 5.591C13.049 5.64262 12.9748 5.71687 12.9231 5.80631L6.45553 17.0035C6.40381 17.0931 6.37653 17.1947 6.37645 17.2982C6.37637 17.4017 6.4035 17.5034 6.45509 17.5931C6.50668 17.6828 6.58093 17.7572 6.67036 17.809C6.75979 17.8608 6.86125 17.8881 6.96454 17.8881H19.8997C20.003 17.8881 20.1044 17.8608 20.1938 17.809C20.2833 17.7572 20.3575 17.6828 20.4091 17.5931C20.4607 17.5034 20.4878 17.4017 20.4877 17.2982C20.4877 17.1947 20.4604 17.0931 20.4087 17.0035ZM13.4321 14.9419C13.2576 14.9419 13.0871 14.9937 12.942 15.0909C12.7969 15.188 12.6838 15.3261 12.6171 15.4876C12.5503 15.6491 12.5328 15.8269 12.5669 15.9984C12.6009 16.1699 12.6849 16.3274 12.8083 16.451C12.9317 16.5747 13.0889 16.6589 13.26 16.693C13.4311 16.7271 13.6085 16.7096 13.7697 16.6427C13.9309 16.5757 14.0687 16.4624 14.1656 16.3171C14.2625 16.1717 14.3143 16.0008 14.3143 15.8259C14.314 15.5915 14.221 15.3668 14.0556 15.2011C13.8902 15.0354 13.666 14.9421 13.4321 14.9419Z" fill="white" stroke="white" stroke-width="0.2"/>
</g>
</svg>
