<svg width="18" height="19" viewBox="0 0 18 19" fill="none" xmlns="http://www.w3.org/2000/svg">
    <path d="M2.86719 11.5356V8.4082H10.8693V11.3801" stroke="#262B44" stroke-width="1.2"/>
    <path d="M6.86719 4.8916V6.32531" stroke="#262B44" stroke-width="1.2"/>
    <path d="M4.04004 8.4084V6.32568H9.69581V8.4084" stroke="#262B44" stroke-width="1.2"/>
    <path d="M2.86664 18.0002L1 12.3188L6.86771 9.76416L12.781 12.1831L10.8688 18.0002" stroke="#262B44" stroke-width="1.2"/>
    <path d="M1.52734 13.8825L6.8667 11.5356L12.1022 13.8825" stroke="#262B44" stroke-width="1.2"/>
    <path d="M6.8916 9.7373V15.1587" stroke="#262B44" stroke-width="1.2"/>
    <path d="M1.10352 18H12.6504" stroke="#262B44" stroke-width="1.2"/>
    <path d="M11.9088 0.325722L10.7147 2.74678L8.04305 3.13627C7.56394 3.20576 7.37194 3.7964 7.71938 4.13469L9.65227 6.01814L9.19511 8.67875C9.11282 9.15967 9.61936 9.5199 10.0436 9.29498L12.4337 8.03874L14.8237 9.29498C15.248 9.51807 15.7545 9.15967 15.6722 8.67875L15.2151 6.01814L17.1479 4.13469C17.4954 3.7964 17.3034 3.20576 16.8243 3.13627L14.1526 2.74678L12.9585 0.325722C12.7445 -0.105827 12.1246 -0.111312 11.9088 0.325722Z" fill="#262B44"/>
</svg>
