<svg width="12" height="12" viewBox="0 0 12 12" fill="none" xmlns="http://www.w3.org/2000/svg">
<g id="&#236;&#158;&#133;&#237;&#149;&#173;&#236;&#157;&#188;&#236;&#139;&#156; &#236;&#149;&#132;&#236;&#157;&#180;&#236;&#189;&#152;">
<path id="Vector" d="M5.99996 0C4.81328 0 3.65325 0.351894 2.66656 1.01118C1.67988 1.67047 0.910845 2.60754 0.456722 3.7039C0.0025997 4.80026 -0.11622 6.00665 0.11529 7.17054C0.3468 8.33443 0.918241 9.40352 1.75735 10.2426C2.59646 11.0818 3.66555 11.6532 4.82943 11.8847C5.99331 12.1162 7.1997 11.9974 8.29605 11.5433C9.3924 11.0891 10.3295 10.3201 10.9887 9.33342C11.648 8.34673 11.9999 7.18669 11.9999 6C11.9982 4.40923 11.3655 2.8841 10.2407 1.75926C9.11584 0.634414 7.59072 0.00172054 5.99996 0ZM5.99996 11C5.01106 11 4.04437 10.7068 3.22213 10.1573C2.39989 9.60794 1.75903 8.82705 1.3806 7.91342C1.00216 6.99979 0.903144 5.99445 1.09607 5.02455C1.28899 4.05464 1.76519 3.16373 2.46445 2.46447C3.16371 1.7652 4.05462 1.289 5.02452 1.09607C5.99442 0.903147 6.99974 1.00216 7.91337 1.3806C8.82699 1.75904 9.60788 2.3999 10.1573 3.22215C10.7067 4.04439 10.9999 5.01109 10.9999 6C10.9985 7.32563 10.4712 8.59656 9.53387 9.53392C8.59651 10.4713 7.32559 10.9985 5.99996 11Z" fill="#424242"/>
<path id="Vector_2" d="M5.67286 5.92038L5.67286 8.71338C5.67286 8.84599 5.72554 8.97316 5.8193 9.06693C5.91307 9.1607 6.04025 9.21338 6.17285 9.21338C6.30546 9.21338 6.43264 9.1607 6.52641 9.06693C6.62017 8.97316 6.67285 8.84599 6.67285 8.71338L6.67285 5.71338C6.67282 5.58078 6.62013 5.45363 6.52635 5.35988L5.02636 3.85988C4.93206 3.7688 4.80576 3.7184 4.67466 3.71954C4.54357 3.72068 4.41816 3.77327 4.32546 3.86597C4.23275 3.95867 4.18017 4.08408 4.17903 4.21518C4.17789 4.34628 4.22829 4.47258 4.31937 4.56688L5.67286 5.92038Z" fill="#424242"/>
</g>
</svg>
