<svg width="12" height="12" viewBox="0 0 12 12" fill="none" xmlns="http://www.w3.org/2000/svg">
<g id="&#236;&#182;&#156;&#237;&#149;&#173;&#236;&#157;&#188;&#236;&#139;&#156; &#236;&#149;&#132;&#236;&#157;&#180;&#236;&#189;&#152;">
<path id="Vector" d="M6.00004 0C4.81335 0 3.6533 0.351894 2.6666 1.01118C1.6799 1.67047 0.910858 2.60754 0.456729 3.7039C0.00259973 4.80026 -0.116221 6.00665 0.115292 7.17054C0.346805 8.33443 0.918253 9.40352 1.75737 10.2426C2.5965 11.0818 3.6656 11.6532 4.82949 11.8847C5.99339 12.1162 7.1998 11.9974 8.29616 11.5433C9.39252 11.0891 10.3296 10.3201 10.9889 9.33342C11.6482 8.34673 12.0001 7.18669 12.0001 6C11.9984 4.40923 11.3657 2.8841 10.2408 1.75926C9.11596 0.634414 7.59083 0.00172054 6.00004 0ZM6.00004 11C5.01113 11 4.04443 10.7068 3.22217 10.1573C2.39992 9.60794 1.75906 8.82705 1.38061 7.91342C1.00217 6.99979 0.903157 5.99445 1.09608 5.02455C1.28901 4.05464 1.76522 3.16373 2.46449 2.46447C3.16375 1.7652 4.05467 1.289 5.02459 1.09607C5.9945 0.903147 6.99984 1.00216 7.91348 1.3806C8.82711 1.75904 9.60801 2.3999 10.1574 3.22215C10.7068 4.04439 11.0001 5.01109 11.0001 6C10.9986 7.32563 10.4714 8.59656 9.53399 9.53392C8.59662 10.4713 7.32569 10.9985 6.00004 11Z" fill="#213079"/>
<path id="Vector_2" d="M6.20242 5.92544L3.5533 5.04051C3.42752 4.99849 3.29021 5.00816 3.17156 5.06739C3.05291 5.12662 2.96265 5.23055 2.92063 5.35633C2.87862 5.4821 2.88828 5.61942 2.94751 5.73807C3.00674 5.85671 3.11067 5.94697 3.23645 5.98899L6.08191 6.93951C6.20768 6.98149 6.34498 6.9718 6.46361 6.91256L8.36162 5.9651C8.47788 5.90452 8.5657 5.80069 8.60616 5.67599C8.64662 5.55128 8.63648 5.41568 8.57792 5.29838C8.51937 5.18108 8.41708 5.09147 8.2931 5.04885C8.16912 5.00623 8.03335 5.01402 7.91505 5.07052L6.20242 5.92544Z" fill="#213079"/>
</g>
</svg>
