<svg width="24" height="24" viewBox="0 0 24 24" fill="none" xmlns="http://www.w3.org/2000/svg">
<g id="&#236;&#131;&#129;&#235;&#139;&#168; &#236;&#131;&#157;&#236;&#132;&#160; &#236;&#149;&#132;&#236;&#157;&#180;&#236;&#189;&#152;">
<rect id="Rectangle 543" width="24" height="24" rx="3" fill="#EEEEEE"/>
<g id="Group 716">
<path id="Vector" d="M16.5714 7.42851C16.887 7.42851 17.1429 7.17267 17.1429 6.85708C17.1429 6.54148 16.887 6.28564 16.5714 6.28564C16.2558 6.28564 16 6.54148 16 6.85708C16 7.17267 16.2558 7.42851 16.5714 7.42851Z" fill="#8F8F8F"/>
<path id="Vector_2" d="M17.7143 4C15.2903 4.00277 12.9663 4.96693 11.2523 6.68096C9.53827 8.39499 8.57411 10.7189 8.57134 13.1429V14.2858H4.57131C4.45831 14.2858 4.34785 14.3193 4.2539 14.3821C4.15995 14.4449 4.08673 14.5342 4.04349 14.6386C4.00025 14.743 3.98893 14.8578 4.01097 14.9687C4.03301 15.0795 4.08742 15.1813 4.16731 15.2612L8.73877 19.8327C8.81869 19.9126 8.9205 19.967 9.03133 19.989C9.14216 20.0111 9.25704 19.9997 9.36144 19.9565C9.46584 19.9133 9.55507 19.84 9.61787 19.7461C9.68066 19.6521 9.71418 19.5417 9.71421 19.4287V15.4287H10.8571C13.2811 15.4259 15.605 14.4617 17.319 12.7477C19.0331 11.0337 19.9972 8.70974 20 6.28573V4H17.7143ZM8.57134 18.0491L5.95081 15.4287H8.57134V18.0491ZM9.71421 14.2858V13.1429C9.71436 11.0799 10.5149 9.09741 11.9474 7.61277L16.3874 12.0525C14.9027 13.485 12.9202 14.2856 10.8571 14.2858H9.71421ZM18.8571 6.28573C18.8571 8.06948 18.2573 9.80142 17.1543 11.2032L12.7968 6.84574C14.1986 5.74266 15.9305 5.14291 17.7143 5.14287H18.8571V6.28573Z" fill="#8F8F8F"/>
</g>
</g>
</svg>
