<svg width="18" height="18" viewBox="0 0 18 18" fill="none" xmlns="http://www.w3.org/2000/svg">
<g id="Group">
<path id="Vector" d="M17.9813 9.09843C17.9487 9.01864 17.8763 8.95644 17.7849 8.92949L15.4457 8.23841V3.96856C15.4457 3.81533 15.3043 3.69109 15.13 3.69109H13.1471V0.277486C13.1471 0.12424 13.0057 0 12.8313 0H5.16884C4.99447 0 4.85309 0.12424 4.85309 0.277486V3.69109H2.87002C2.69565 3.69109 2.55428 3.81533 2.55428 3.96856V8.23841L0.215064 8.92949C0.123652 8.95644 0.0513446 9.01864 0.0186566 9.09843C-0.0140195 9.17824 -0.00338151 9.26671 0.0474948 9.33867L6.06686 17.8687C6.12437 17.9504 6.22581 18 6.33511 18H11.665C11.7743 18 11.8758 17.9504 11.9333 17.8687L17.9525 9.33867C18.0034 9.26671 18.014 9.17824 17.9813 9.09843ZM5.48456 0.554972H12.5156V3.69109H5.48456V0.554972ZM8.68434 17.445H6.51086L0.794133 9.34395L8.68433 7.01299L8.68434 17.445ZM9.00206 6.34979C9.00138 6.34979 9.00077 6.34943 9.00007 6.34943C8.99937 6.34943 8.99878 6.34979 8.99809 6.34979C8.96477 6.34997 8.93145 6.3545 8.8994 6.36394L3.18575 8.05188V4.24606H14.8142V8.05187L9.10075 6.36394C9.06871 6.3545 9.03538 6.34997 9.00206 6.34979ZM11.4893 17.445H9.31581V7.01301L17.2059 9.34395L11.4893 17.445Z" fill="#9EB7D2"/>
<path id="Vector_2" d="M8.29527 1.84546H7.33234C7.15796 1.84546 7.0166 1.96971 7.0166 2.12296C7.0166 2.27619 7.15796 2.40044 7.33234 2.40044H8.29527C8.46963 2.40044 8.611 2.27619 8.611 2.12296C8.611 1.96971 8.46963 1.84546 8.29527 1.84546Z" fill="#9EB7D2"/>
<path id="Vector_3" d="M10.6674 1.84546H9.70441C9.53005 1.84546 9.38867 1.96971 9.38867 2.12296C9.38867 2.27619 9.53005 2.40044 9.70441 2.40044H10.6674C10.8417 2.40044 10.9831 2.27619 10.9831 2.12296C10.9831 1.96971 10.8417 1.84546 10.6674 1.84546Z" fill="#9EB7D2"/>
</g>
</svg>
