<svg width="20" height="20" viewBox="0 0 20 20" fill="none" xmlns="http://www.w3.org/2000/svg">
<g id="&#236;&#167;&#128;&#235;&#143;&#132;&#236;&#182;&#148;&#236;&#160;&#129;&#236;&#149;&#132;&#236;&#157;&#180;&#236;&#189;&#152;">
<path id="Vector" d="M18.881 5.05634C18.7965 4.99488 18.6839 4.96415 18.5994 5.02561L12.8553 7.26889L8.82878 5.67093C9.05404 5.05634 9.16667 4.5032 9.16667 4.04225C9.16667 3.21255 8.88509 2.47503 8.3501 1.89117C7.8151 1.3073 7.11117 1 6.37907 1C4.8304 1 3.59147 2.35211 3.59147 4.04225C3.59147 4.62612 3.78857 5.33291 4.12646 6.19334L1.19808 7.26889C1.08545 7.33035 1.00098 7.45327 1.00098 7.57618V18.6389C1.00098 18.7618 1.05729 18.854 1.14176 18.9155C1.19808 18.9462 1.25439 18.977 1.31071 18.977C1.33887 18.977 1.39518 18.977 1.42334 18.9462L7.16748 16.7337L12.7427 18.977C12.799 19.0077 12.8835 19.0077 12.9398 18.977L18.7965 16.7029C18.9092 16.6415 18.9937 16.5186 18.9937 16.3956V5.33291C19.0218 5.20999 18.9655 5.1178 18.881 5.05634ZM6.37907 1.6146C6.97038 1.6146 7.50537 1.86044 7.89958 2.32138C8.32194 2.7516 8.5472 3.3662 8.5472 3.98079C8.5472 4.41101 8.40641 4.99488 8.12484 5.67093C7.618 6.90013 6.77327 8.19078 6.37907 8.77465C6.32275 8.71319 6.2946 8.65173 6.23828 8.55954C5.87223 8.0064 5.28092 7.08451 4.85856 6.13188C4.4362 5.24072 4.23909 4.5032 4.23909 3.95006C4.21094 2.69014 5.19645 1.6146 6.37907 1.6146ZM18.4023 16.1498L12.8553 18.3009L7.28011 16.0576C7.25195 16.0576 7.19564 16.0269 7.16748 16.0269C7.13932 16.0269 7.08301 16.0269 7.05485 16.0576L1.62044 18.178V7.82202L4.4362 6.74648C4.4362 6.74648 4.4362 6.74648 4.4362 6.77721C4.46436 6.80794 4.46436 6.83867 4.49251 6.8694C4.52067 6.93086 4.54883 6.99232 4.57699 7.05378C4.60514 7.08451 4.60514 7.11524 4.6333 7.14597C4.66146 7.20743 4.68962 7.26889 4.71777 7.33035C4.74593 7.36108 4.74593 7.39181 4.77409 7.42254C4.80225 7.484 4.8304 7.54545 4.85856 7.57618C4.88672 7.60691 4.88672 7.63764 4.91488 7.66837C4.94303 7.72983 4.97119 7.76056 4.99935 7.82202C5.02751 7.85275 5.02751 7.88348 5.05566 7.91421C5.08382 7.97567 5.11198 8.0064 5.14014 8.06786C5.16829 8.09859 5.16829 8.12932 5.19645 8.16005C5.22461 8.22151 5.25277 8.25224 5.28092 8.3137C5.30908 8.34443 5.30908 8.37516 5.33724 8.40589C5.3654 8.46735 5.39355 8.49808 5.42171 8.55954C5.44987 8.59027 5.44987 8.621 5.47803 8.621C5.50618 8.68246 5.53434 8.71319 5.5625 8.74392C5.5625 8.77465 5.59066 8.77465 5.59066 8.80538C5.61881 8.86684 5.64697 8.89757 5.67513 8.9283L5.70329 8.95903C5.73145 8.98976 5.7596 9.05122 5.78776 9.08195L5.81592 9.11268C5.84408 9.14341 5.87223 9.20487 5.90039 9.2356C5.92855 9.26633 5.95671 9.29706 5.98486 9.32778C6.04118 9.41997 6.09749 9.48143 6.09749 9.51216C6.15381 9.60435 6.23828 9.63508 6.35091 9.63508C6.43538 9.63508 6.51986 9.57362 6.60433 9.51216C6.60433 9.51216 6.63249 9.48143 6.6888 9.41997L6.71696 9.38924C6.74512 9.35851 6.74512 9.35851 6.77327 9.32778L6.80143 9.29705C6.82959 9.26633 6.82959 9.2356 6.85775 9.20487C6.85775 9.17414 6.8859 9.17414 6.8859 9.14341C6.91406 9.11268 6.94222 9.08195 6.94222 9.05122C6.97038 9.02049 6.97038 8.98976 6.99853 8.95903C7.02669 8.9283 7.05485 8.89757 7.08301 8.83611C7.11117 8.80538 7.11116 8.77465 7.13932 8.74392C7.16748 8.71319 7.19564 8.68246 7.2238 8.621C7.25195 8.59027 7.28011 8.55954 7.28011 8.52881C7.30827 8.49808 7.33643 8.43662 7.36458 8.40589C7.39274 8.37516 7.4209 8.3137 7.44906 8.28297C7.47721 8.25224 7.50537 8.19078 7.53353 8.16005C7.56169 8.12932 7.58984 8.06786 7.618 8.03713C7.64616 7.97567 7.67432 7.94494 7.70247 7.88348C7.73063 7.85275 7.75879 7.79129 7.78695 7.76056C7.8151 7.6991 7.84326 7.66837 7.87142 7.60691C7.89958 7.54545 7.92773 7.51472 7.95589 7.45326C7.98405 7.39181 8.01221 7.36108 8.04036 7.29962C8.06852 7.23816 8.09668 7.20743 8.12484 7.14597C8.15299 7.08451 8.18115 7.05378 8.20931 6.99232C8.23747 6.93086 8.26562 6.90013 8.29378 6.83867C8.32194 6.77721 8.3501 6.74648 8.37825 6.68502C8.40641 6.62356 8.43457 6.59283 8.46273 6.53137C8.49088 6.46991 8.51904 6.40845 8.5472 6.37772C8.57536 6.31626 8.60352 6.28553 8.60352 6.22407C8.60352 6.22407 8.60352 6.22407 8.60352 6.19334L12.7708 7.85275C12.8271 7.88348 12.9116 7.88348 12.9679 7.85275L18.4023 5.73239V16.1498Z" fill="#9EB7D2" stroke="#9EB7D2" stroke-width="0.2"/>
<path id="Vector_2" d="M15.7836 13.1689C15.84 13.1997 15.9244 13.1997 15.9808 13.1997C16.1497 13.1997 16.3186 13.1382 16.4594 13.046C16.6565 12.8924 16.7973 12.6773 16.8536 12.4314C16.91 12.1856 16.8536 11.909 16.741 11.6939C16.6002 11.4788 16.4031 11.3251 16.1779 11.2637C15.6992 11.1408 15.1923 11.4788 15.0797 12.0012C15.0234 12.247 15.0797 12.5236 15.1923 12.7387C15.3613 12.9538 15.5584 13.1075 15.7836 13.1689ZM15.6992 12.1241C15.7273 11.9397 15.8963 11.8476 16.0371 11.8783C16.1215 11.909 16.1779 11.9397 16.206 12.0319C16.2342 12.0934 16.2623 12.1856 16.2342 12.2778C16.206 12.37 16.1779 12.4314 16.0934 12.4621C16.0371 12.4929 15.9526 12.5236 15.8681 12.4929C15.7836 12.4621 15.7273 12.4314 15.6992 12.3392C15.6992 12.2778 15.6992 12.2163 15.6992 12.1241Z" fill="#9EB7D2" stroke="#9EB7D2" stroke-width="0.2"/>
<path id="Vector_3" d="M4.09816 12.1549L3.90106 12.2778L3.78843 12.0627C3.70396 11.9091 3.50686 11.8476 3.36607 11.9705C3.22528 12.0627 3.16897 12.2778 3.2816 12.4315L3.39423 12.6466L3.19712 12.7695C3.05634 12.8617 3.00002 13.0768 3.11265 13.2305C3.14081 13.3534 3.25344 13.3841 3.33791 13.3841C3.39423 13.3841 3.45054 13.3534 3.50686 13.3227L3.70396 13.1997L3.81659 13.4148C3.8729 13.507 3.98553 13.5685 4.07001 13.5685C4.12632 13.5685 4.18264 13.5378 4.23895 13.507C4.37974 13.4148 4.43606 13.1997 4.32343 13.0461L4.21079 12.831L4.4079 12.7081C4.54869 12.6159 4.605 12.4008 4.49237 12.2471C4.43606 12.0935 4.23895 12.0627 4.09816 12.1549Z" fill="#9EB7D2" stroke="#9EB7D2" stroke-width="0.2"/>
<path id="Vector_4" d="M6.99845 13.0766C6.6324 13.0766 6.15373 13.0152 5.84399 12.9232C5.67505 12.8925 5.5061 13.0152 5.47794 13.1994C5.44979 13.3836 5.56242 13.5677 5.73136 13.5984C6.0411 13.6598 6.54793 13.7519 6.99845 13.7519C7.1674 13.7519 7.30819 13.5984 7.30819 13.4143C7.30819 13.2301 7.1674 13.0766 6.99845 13.0766Z" fill="#9EB7D2" stroke="#9EB7D2" stroke-width="0.2"/>
<path id="Vector_5" d="M9.30725 11.9091C9.11015 12.2164 8.88489 12.4623 8.60331 12.6466C8.51884 12.7081 8.40621 12.7696 8.29358 12.831C8.12463 12.8925 8.06832 13.1076 8.12463 13.292C8.18095 13.4149 8.29358 13.5071 8.40621 13.5071C8.43437 13.5071 8.49068 13.5071 8.51884 13.4763C8.65963 13.4149 8.77226 13.3534 8.88489 13.2612C9.22278 13.0154 9.50435 12.7388 9.75777 12.3701C9.8704 12.2164 9.84224 12.0013 9.70146 11.9091C9.61698 11.7247 9.41988 11.7555 9.30725 11.9091Z" fill="#9EB7D2" stroke="#9EB7D2" stroke-width="0.2"/>
<path id="Vector_6" d="M11.5603 9.69653C11.2506 9.69653 11.0816 9.78872 10.9127 9.85018C10.5185 10.0346 10.1806 10.434 10.0961 10.557C9.98348 10.7106 10.0116 10.9257 10.1243 11.0486C10.1806 11.1101 10.2651 11.1408 10.3214 11.1408C10.4058 11.1408 10.4903 11.1101 10.5466 11.0179C10.6874 10.8335 10.9127 10.6184 11.1379 10.4955C11.3069 10.434 11.3632 10.4033 11.5603 10.3726C11.7293 10.3726 11.87 10.2189 11.87 10.0346C11.87 9.85018 11.7293 9.69653 11.5603 9.69653Z" fill="#9EB7D2" stroke="#9EB7D2" stroke-width="0.2"/>
<path id="Vector_7" d="M12.7145 10.2189C12.6582 10.4033 12.7145 10.5877 12.8834 10.6799C13.1932 10.8335 13.6437 11.0794 13.9816 11.3559C14.0379 11.3867 14.0942 11.4174 14.1505 11.4174C14.2631 11.4174 14.3476 11.3559 14.4039 11.2638C14.4884 11.1101 14.4602 10.895 14.3195 10.8028C13.9253 10.5262 13.4747 10.2497 13.1087 10.096C12.9679 9.9731 12.799 10.0653 12.7145 10.2189Z" fill="#9EB7D2" stroke="#9EB7D2" stroke-width="0.2"/>
<path id="Vector_8" d="M6.37923 4.81045C6.91423 4.81045 7.33659 4.34951 7.33659 3.76564C7.33659 3.18177 6.91423 2.72083 6.37923 2.72083C5.84424 2.72083 5.42188 3.18177 5.42188 3.76564C5.42188 4.34951 5.8724 4.81045 6.37923 4.81045ZM6.37923 3.39688C6.54818 3.39688 6.71712 3.55053 6.71712 3.76564C6.71712 3.95002 6.57633 4.1344 6.37923 4.1344C6.21029 4.1344 6.04134 3.98075 6.04134 3.76564C6.0695 3.58126 6.21029 3.39688 6.37923 3.39688Z" fill="#9EB7D2" stroke="#9EB7D2" stroke-width="0.2"/>
</g>
</svg>
