<svg width="30" height="30" viewBox="0 0 30 30" fill="none" xmlns="http://www.w3.org/2000/svg">
    <g id="Group 1086">
        <rect id="Rectangle 784" width="30" height="30" fill="#30385F" fill-opacity="0.8"/>
        <path id="AI" d="M18.101 21.442H16.333L15.041 17.838H10.349L9.057 21.442H7.34L11.896 9.185H13.528L18.101 21.442ZM10.859 16.393H14.531L13.511 13.52C13.4203 13.2707 13.341 13.0553 13.273 12.874C13.205 12.6813 13.1427 12.5 13.086 12.33C13.0293 12.1487 12.967 11.9617 12.899 11.769C12.8423 11.5763 12.7743 11.3383 12.695 11.055C12.6043 11.3383 12.5307 11.582 12.474 11.786C12.4173 11.9787 12.3607 12.16 12.304 12.33C12.2473 12.5 12.185 12.6813 12.117 12.874C12.0603 13.0553 11.9867 13.2707 11.896 13.52L10.859 16.393ZM21.0055 9.185V21.442H19.3225V9.185H21.0055Z" fill="white"/>
    </g>
</svg>
