<svg width="30" height="30" viewBox="0 0 30 30" fill="none" xmlns="http://www.w3.org/2000/svg">
<g id="Group 1080">
<rect id="Rectangle 784" width="30" height="30" fill="#30385F" fill-opacity="0.8"/>
<g id="Group 1081">
<path id="Vector" d="M23 8H8V23H23V8Z" stroke="white" stroke-width="1.2" stroke-linecap="round"/>
<path id="Vector_2" d="M7.37931 8.75862C8.14108 8.75862 8.75862 8.14108 8.75862 7.37931C8.75862 6.61755 8.14108 6 7.37931 6C6.61755 6 6 6.61755 6 7.37931C6 8.14108 6.61755 8.75862 7.37931 8.75862Z" fill="white" stroke="white" stroke-width="1.4" stroke-linecap="round" stroke-linejoin="round"/>
<path id="Vector_3" d="M23.3793 24.7586C24.1411 24.7586 24.7586 24.1411 24.7586 23.3793C24.7586 22.6175 24.1411 22 23.3793 22C22.6175 22 22 22.6175 22 23.3793C22 24.1411 22.6175 24.7586 23.3793 24.7586Z" fill="white" stroke="white" stroke-width="1.4" stroke-linecap="round" stroke-linejoin="round"/>
</g>
</g>
</svg>
