<svg width="30" height="30" viewBox="0 0 30 30" fill="none" xmlns="http://www.w3.org/2000/svg">
<g id="Group 1083">
<rect id="Rectangle 784" width="30" height="30" fill="#30385F" fill-opacity="0.8"/>
<g id="Group 1084">
<path id="Vector" d="M6 10.655H10.454L12.372 8H16.725L18.493 10.655H23.188V22.588H6V10.655Z" stroke="white" stroke-width="1.2"/>
<path id="Vector_2" d="M14.4179 19.579C16.2112 19.579 17.6649 18.1252 17.6649 16.332C17.6649 14.5387 16.2112 13.085 14.4179 13.085C12.6246 13.085 11.1709 14.5387 11.1709 16.332C11.1709 18.1252 12.6246 19.579 14.4179 19.579Z" stroke="white" stroke-width="1.2"/>
<path id="Vector_3" d="M20.7891 13.5499C21.1812 13.5499 21.4991 13.232 21.4991 12.8399C21.4991 12.4478 21.1812 12.1299 20.7891 12.1299C20.397 12.1299 20.0791 12.4478 20.0791 12.8399C20.0791 13.232 20.397 13.5499 20.7891 13.5499Z" fill="white"/>
</g>
</g>
</svg>
