<svg width="30" height="30" viewBox="0 0 30 30" fill="none" xmlns="http://www.w3.org/2000/svg">
<g id="Group 1081">
<rect id="Rectangle 784" width="30" height="30" fill="#30385F" fill-opacity="0.8"/>
<g id="Group">
<path id="Vector" d="M16.35 14.3C15.9634 14.3 15.65 14.6134 15.65 15C15.65 15.3866 15.9634 15.7 16.35 15.7V14.3ZM16.35 15.7H21.3V14.3H16.35V15.7Z" fill="white"/>
<path id="Vector 317" d="M19 12.5L21.5 15L19 17.5" stroke="white"/>
<path id="Vector_2" d="M15 16.3499C14.2544 16.3499 13.65 15.7455 13.65 14.9999C13.65 14.2543 14.2544 13.6499 15 13.6499C15.7456 13.6499 16.35 14.2543 16.35 14.9999C16.35 15.7455 15.7456 16.3499 15 16.3499Z" stroke="white" stroke-width="1.4"/>
<path id="Vector_3" d="M15 24C10.0294 24 6 19.9705 6 15C6 10.0294 10.0294 6 15 6C19.9705 6 24 10.0294 24 15C24 19.9705 19.9705 24 15 24Z" stroke="white" stroke-width="1.4"/>
</g>
</g>
</svg>
