<svg width="24" height="24" viewBox="0 0 24 24" fill="none" xmlns="http://www.w3.org/2000/svg">
<g id="Frame 1261160073">
<path id="weather" d="M4 14.0564C4 13.8404 4.06609 13.6659 4.19826 13.5412C4.30106 13.4166 4.45525 13.3501 4.65351 13.3501H6.18082C6.35704 13.3501 6.51124 13.4166 6.62139 13.5496C6.73887 13.6825 6.79761 13.8487 6.79761 14.0481C6.79761 14.2475 6.73887 14.4136 6.62139 14.5549C6.5039 14.6961 6.35704 14.7626 6.18082 14.7626H4.65351C4.47728 14.7626 4.32308 14.6961 4.19091 14.5549C4.05874 14.422 4 14.2558 4 14.0564ZM4.67554 18.2772C4.67554 18.0861 4.74162 17.9199 4.86645 17.7703C4.98394 17.6374 5.13814 17.5792 5.31436 17.5792H18.6856C18.8619 17.5792 19.0161 17.6457 19.1409 17.7786C19.2657 17.9116 19.3245 18.0777 19.3245 18.2772C19.3245 18.4766 19.2584 18.6427 19.1335 18.784C19.0087 18.9252 18.8545 19 18.6856 19H5.32171C5.14548 19 4.99862 18.9252 4.8738 18.784C4.74897 18.6427 4.67554 18.4766 4.67554 18.2772ZM6.18082 8.16558C6.18082 7.94956 6.23956 7.79169 6.3497 7.67537C6.47453 7.52582 6.62873 7.45104 6.80496 7.45104C6.98118 7.45104 7.12804 7.52582 7.25287 7.67537L8.31023 8.88843C8.4424 9.02136 8.50115 9.18754 8.50115 9.38694C8.50115 9.59466 8.44241 9.76083 8.32492 9.89377C8.20744 10.0267 8.06058 10.0932 7.88435 10.0932C7.72281 10.0932 7.57595 10.0267 7.44378 9.89377L6.3497 8.6724C6.23956 8.55608 6.18082 8.38991 6.18082 8.16558ZM8.08995 14.0564C8.08995 14.7792 8.22212 15.4273 8.47912 15.9923C8.50115 16.0671 8.55989 16.1086 8.65535 16.1086H9.8816C9.933 16.1086 9.96971 16.092 9.9844 16.0588C9.99908 16.0255 9.97705 15.9757 9.933 15.9258C9.54383 15.3858 9.34557 14.7626 9.34557 14.0564C9.34557 13.2338 9.60991 12.5276 10.1313 11.946C10.6526 11.3644 11.2767 11.0736 12.0037 11.0736C12.7306 11.0736 13.3547 11.3644 13.8761 11.946C14.3974 12.5276 14.6471 13.2338 14.6471 14.0564C14.6471 14.7709 14.4488 15.3941 14.0597 15.9258C14.0303 15.9757 14.0156 16.0089 14.0156 16.0255C14.0083 16.0504 14.0156 16.0754 14.0376 16.0837C14.0523 16.1003 14.0817 16.1086 14.1111 16.1086H15.3593C15.4254 16.1086 15.4768 16.0671 15.5135 15.9923C15.7926 15.4024 15.9247 14.7626 15.9247 14.0564C15.9247 13.2588 15.7485 12.5193 15.3961 11.838C15.0436 11.1567 14.5663 10.6166 13.9642 10.2178C13.3621 9.81899 12.7086 9.61958 12.0037 9.61958C11.2988 9.61958 10.6453 9.81899 10.0431 10.2178C9.44103 10.6166 8.96375 11.1567 8.61129 11.838C8.25883 12.5193 8.08995 13.2588 8.08995 14.0564ZM11.3722 7.46766V5.73116C11.3722 5.53175 11.4309 5.36558 11.5558 5.21602C11.6806 5.06647 11.8274 5 12.0037 5C12.1799 5 12.3268 5.07478 12.4589 5.21602C12.5838 5.35727 12.6498 5.53175 12.6498 5.73116V7.46766C12.6498 7.66706 12.5838 7.83323 12.4589 7.98279C12.3268 8.13234 12.1799 8.19881 12.0037 8.19881C11.8274 8.19881 11.6806 8.12404 11.5558 7.98279C11.4309 7.83323 11.3722 7.66706 11.3722 7.46766ZM15.4989 9.38694C15.4989 9.18754 15.5576 9.02136 15.6751 8.88843L16.7324 7.67537C16.8573 7.52582 17.0115 7.45104 17.1877 7.45104C17.3713 7.45104 17.5255 7.51751 17.643 7.65875C17.7678 7.8 17.8265 7.96617 17.8265 8.16558C17.8265 8.3816 17.7678 8.54777 17.6576 8.6724L16.5489 9.89377C16.4314 10.0184 16.2845 10.0766 16.1157 10.0766C15.9321 10.0849 15.7852 10.0184 15.6677 9.89377C15.5576 9.76914 15.4989 9.59466 15.4989 9.38694ZM17.2097 14.0564C17.2097 13.832 17.2685 13.6659 17.386 13.5412C17.4888 13.4166 17.6356 13.3501 17.8192 13.3501H19.3538C19.5301 13.3501 19.6843 13.4166 19.8091 13.5496C19.9339 13.6825 20 13.8487 20 14.0481C20 14.2475 19.9339 14.4136 19.8091 14.5549C19.6769 14.6961 19.5301 14.7626 19.3538 14.7626H17.8192C17.6503 14.7626 17.5034 14.6961 17.386 14.5549C17.2685 14.422 17.2097 14.2558 17.2097 14.0564Z" fill="white"/>
</g>
</svg>
