<svg width="20" height="20" viewBox="0 0 20 20" fill="none" xmlns="http://www.w3.org/2000/svg">
<g id="icon">
<g id="icon_2">
<path id="Vector" d="M2 11.4473L5.15654 17.9953H15.1354L18.2542 11.4473L10.1271 8.28906L2 11.4473Z" stroke="white"/>
<path id="Vector_2" d="M10.127 8.44727V18.0018" stroke="white"/>
<path id="Vector_3" d="M4.22168 10.591V5.48242H16.0308V10.3398" stroke="white"/>
<path id="Vector_4" d="M6.42383 5.24722V3.14258H13.8299V5.24722" stroke="white"/>
<path id="Vector_5" d="M10.127 1V3.14322" stroke="white"/>
<g id="Vector_6">
<mask id="path-6-inside-1_2120_93484" fill="white">
<path d="M6.40153 6.76758H5.49023V7.67973H6.40153V6.76758Z"/>
</mask>
<path d="M6.40153 6.76758H5.49023V7.67973H6.40153V6.76758Z" fill="white"/>
<path d="M5.49023 6.76758V5.76758H4.49023V6.76758H5.49023ZM6.40153 6.76758H7.40153V5.76758H6.40153V6.76758ZM6.40153 7.67973V8.67973H7.40153V7.67973H6.40153ZM5.49023 7.67973H4.49023V8.67973H5.49023V7.67973ZM5.49023 7.76758H6.40153V5.76758H5.49023V7.76758ZM5.40153 6.76758V7.67973H7.40153V6.76758H5.40153ZM6.40153 6.67973H5.49023V8.67973H6.40153V6.67973ZM6.49023 7.67973V6.76758H4.49023V7.67973H6.49023Z" fill="white" mask="url(#path-6-inside-1_2120_93484)"/>
</g>
<g id="Vector_7">
<mask id="path-8-inside-2_2120_93484" fill="white">
<path d="M8.27263 6.76758H7.36133V7.67973H8.27263V6.76758Z"/>
</mask>
<path d="M8.27263 6.76758H7.36133V7.67973H8.27263V6.76758Z" fill="white"/>
<path d="M7.36133 6.76758V5.76758H6.36133V6.76758H7.36133ZM8.27263 6.76758H9.27263V5.76758H8.27263V6.76758ZM8.27263 7.67973V8.67973H9.27263V7.67973H8.27263ZM7.36133 7.67973H6.36133V8.67973H7.36133V7.67973ZM7.36133 7.76758H8.27263V5.76758H7.36133V7.76758ZM7.27263 6.76758V7.67973H9.27263V6.76758H7.27263ZM8.27263 6.67973H7.36133V8.67973H8.27263V6.67973ZM8.36133 7.67973V6.76758H6.36133V7.67973H8.36133Z" fill="white" mask="url(#path-8-inside-2_2120_93484)"/>
</g>
<g id="Vector_8">
<mask id="path-10-inside-3_2120_93484" fill="white">
<path d="M12.8713 6.76758H11.96V7.67973H12.8713V6.76758Z"/>
</mask>
<path d="M12.8713 6.76758H11.96V7.67973H12.8713V6.76758Z" fill="white"/>
<path d="M11.96 6.76758V5.76758H10.96V6.76758H11.96ZM12.8713 6.76758H13.8713V5.76758H12.8713V6.76758ZM12.8713 7.67973V8.67973H13.8713V7.67973H12.8713ZM11.96 7.67973H10.96V8.67973H11.96V7.67973ZM11.96 7.76758H12.8713V5.76758H11.96V7.76758ZM11.8713 6.76758V7.67973H13.8713V6.76758H11.8713ZM12.8713 6.67973H11.96V8.67973H12.8713V6.67973ZM12.96 7.67973V6.76758H10.96V7.67973H12.96Z" fill="white" mask="url(#path-10-inside-3_2120_93484)"/>
</g>
<g id="Vector_9">
<mask id="path-12-inside-4_2120_93484" fill="white">
<path d="M14.7433 6.76758H13.832V7.67973H14.7433V6.76758Z"/>
</mask>
<path d="M14.7433 6.76758H13.832V7.67973H14.7433V6.76758Z" fill="white"/>
<path d="M13.832 6.76758V5.76758H12.832V6.76758H13.832ZM14.7433 6.76758H15.7433V5.76758H14.7433V6.76758ZM14.7433 7.67973V8.67973H15.7433V7.67973H14.7433ZM13.832 7.67973H12.832V8.67973H13.832V7.67973ZM13.832 7.76758H14.7433V5.76758H13.832V7.76758ZM13.7433 6.76758V7.67973H15.7433V6.76758H13.7433ZM14.7433 6.67973H13.832V8.67973H14.7433V6.67973ZM14.832 7.67973V6.76758H12.832V7.67973H14.832Z" fill="white" mask="url(#path-12-inside-4_2120_93484)"/>
</g>
</g>
</g>
</svg>
