<svg width="20" height="20" viewBox="0 0 20 20" fill="none" xmlns="http://www.w3.org/2000/svg">
<g id="icon">
<g id="Group 1261159940">
<path id="Vector" d="M4.51959 12.8725C4.67018 12.5437 5.21461 11.2758 5.96756 12.8725C6.52002 14.0443 7.7577 16.2728 8.28787 17.4392C8.40549 17.6967 8.64697 18.6778 7.42889 18.251C6.99762 18.0995 6.23933 17.7101 5.81875 17.531C5.57906 17.4294 5.37322 17.2895 4.77889 17.4945C4.36365 17.637 3.54121 18.0068 3.12686 18.1529C2.85777 18.2474 1.52296 18.7526 2.17967 17.5123C2.78826 16.3655 3.96535 14.0799 4.51959 12.8725Z" stroke="white"/>
<path id="Vector_2" d="M5.19478 9.98365V6.34012C5.19478 6.34012 5.09676 3.92802 7.8234 3.83357C8.73941 3.80238 10.5616 4.23276 10.534 6.30269V16.0491C10.534 16.0491 10.5901 18.3596 13.1145 18.2393C13.9316 18.2001 15.4348 18.2455 15.5649 16.0669V11.3149" stroke="white"/>
<path id="Vector_3" d="M18.0298 4.46467C18.1172 6.1657 15.607 9.03134 15.5661 9.03134C15.5224 9.03134 12.9873 5.9964 13.1014 4.46467C13.2021 3.10759 14.2045 2 15.5652 2C16.9258 2 17.9603 3.10491 18.0298 4.46467Z" stroke="white"/>
<path id="Vector_4" d="M15.5444 5.56337C16.0365 5.56337 16.4354 5.16443 16.4354 4.67231C16.4354 4.18019 16.0365 3.78125 15.5444 3.78125C15.0523 3.78125 14.6533 4.18019 14.6533 4.67231C14.6533 5.16443 15.0523 5.56337 15.5444 5.56337Z" fill="white"/>
</g>
</g>
</svg>
