<svg width="20" height="20" viewBox="0 0 20 20" fill="none" xmlns="http://www.w3.org/2000/svg">
<g id="icon">
<g id="Group 1261159941">
<path id="Vector" d="M7.10458 15.8858H14.6877C14.6877 15.8858 17.2254 15.9889 17.3248 13.1203C17.3576 12.1566 16.9048 10.2404 14.7271 10.2695H4.47312C4.47312 10.2695 2.04228 10.2104 2.16884 7.55459C2.21009 6.69493 2.16228 5.11343 4.45437 4.97656H13.2037" stroke="white" stroke-dasharray="2 1"/>
<path id="Vector_2" d="M13.7324 3L17.5995 6.87547" stroke="white"/>
<path id="Vector_3" d="M17.5995 3L13.7324 6.87547" stroke="white"/>
<path id="Vector_4" d="M3.88149 17.9915C4.92061 17.9915 5.76298 17.1491 5.76298 16.11C5.76298 15.0709 4.92061 14.2285 3.88149 14.2285C2.84237 14.2285 2 15.0709 2 16.11C2 17.1491 2.84237 17.9915 3.88149 17.9915Z" stroke="white"/>
</g>
</g>
</svg>
