<svg width="30" height="30" viewBox="0 0 30 30" fill="none" xmlns="http://www.w3.org/2000/svg">
<g id="map">
<rect id="Rectangle 3" opacity="0.8" width="30" height="30" fill="#003280"/>
<g id="Group 1026">
<path id="Vector" d="M14.3259 10.1598C14.4721 13.0308 10.2362 17.8679 10.1661 17.8679C10.0926 17.8679 5.81424 12.7445 6.00628 10.1598C6.17755 7.86928 7.8695 6 10.1652 6C12.4635 6 14.2091 7.86668 14.3259 10.1598Z" stroke="white" stroke-width="1.2"/>
<path id="Vector_2" d="M10.1668 12.3655C11.2942 12.3655 12.2082 11.4516 12.2082 10.3241C12.2082 9.19669 11.2942 8.28271 10.1668 8.28271C9.03935 8.28271 8.12537 9.19669 8.12537 10.3241C8.12537 11.4516 9.03935 12.3655 10.1668 12.3655Z" stroke="white" stroke-width="1.2"/>
<path id="Vector_3" d="M7.27325 13.7608V22.8036L11.3717 21.0338L15.6361 23L19.5685 21.334L23.4333 22.8002V10.5724L19.6013 9.17285L15.6327 10.4332L14.2902 9.78009" stroke="white" stroke-width="1.2"/>
<path id="Vector_4" d="M19.5766 8.92383V21.5097" stroke="white" stroke-width="1.2"/>
<path id="Vector_5" d="M15.6323 22.9195V10.4331" stroke="white" stroke-width="1.2"/>
<path id="Vector_6" d="M11.4505 21.0711V16.2158" stroke="white" stroke-width="1.2"/>
</g>
</g>
</svg>
