<svg width="26" height="26" viewBox="0 0 26 26" fill="none" xmlns="http://www.w3.org/2000/svg">
<g id="icon">
<circle id="Ellipse 8" cx="13" cy="13" r="13" fill="#8B98C5"/>
<path id="S" d="M7.95769 16.48L9.33369 15.84C9.98969 17.472 11.3977 18.384 13.2377 18.384C15.0617 18.384 16.2937 17.632 16.2937 16.304C16.2937 15.008 15.3817 14.448 14.0697 14.08L12.1337 13.536C10.4217 13.04 8.66169 12.08 8.66169 9.92C8.66169 7.744 10.5657 6.4 13.0137 6.4C15.4297 6.4 17.1097 7.76 17.7977 9.52L16.4217 10.176C15.8297 8.784 14.6777 7.856 13.0137 7.856C11.3497 7.856 10.2617 8.64 10.2617 9.92C10.2617 11.216 11.2697 11.744 12.4857 12.096L14.3897 12.64C16.1177 13.12 17.8777 14.096 17.8777 16.304C17.8777 18.512 15.8457 19.84 13.2377 19.84C10.6617 19.84 8.74169 18.608 7.95769 16.48Z" fill="white"/>
</g>
</svg>
