<svg width="30" height="30" viewBox="0 0 30 30" fill="none" xmlns="http://www.w3.org/2000/svg">
<g id="weather">
<rect id="Rectangle 3" opacity="0.8" width="30" height="30" fill="#003280"/>
<g id="Group 1028">
<path id="Vector" d="M8.02487 22.0002C8.02487 22.0002 5.00369 21.4853 5 18.477C4.99908 17.4288 5.58305 15.7533 8.02487 15.5755C8.02487 15.5755 8.28462 12.0579 12.2186 11.9492C13.5413 11.9142 15.915 12.3278 16.2383 15.5755C16.2383 15.5755 20.1511 15.43 20.2588 18.7146C20.2975 19.8724 19.9125 21.7846 16.9954 22.0002H8.02487Z" stroke="white" stroke-width="1.2"/>
<path id="Vector_2" d="M14.5375 12.5304C15.162 11.602 16.2221 10.9922 17.426 10.9922C19.3483 10.9922 20.9059 12.5488 20.9059 14.4721C20.9059 15.4954 20.4638 16.4156 19.7601 17.053" stroke="white" stroke-width="1.2"/>
<path id="Vector_3" d="M11.3541 8.72998L13.1318 10.3576" stroke="white" stroke-width="1.2"/>
<path id="Vector_4" d="M21.2873 10.6068L23.1498 8.90186" stroke="white" stroke-width="1.2"/>
<path id="Vector_5" d="M23.2801 20.4435L21.5752 18.897" stroke="white" stroke-width="1.2"/>
<path id="Vector_6" d="M17.3628 9.39945V7" stroke="white" stroke-width="1.2"/>
<path id="Vector_7" d="M22.8992 14.5649H25.1808" stroke="white" stroke-width="1.2"/>
</g>
</g>
</svg>
