<svg width="24" height="24" viewBox="0 0 24 24" fill="none" xmlns="http://www.w3.org/2000/svg">
<g id="Frame 1261160074">
<path id="wind" d="M4.57143 10.091C4.41988 10.091 4.27453 10.024 4.16737 9.90466C4.0602 9.78533 4 9.62348 4 9.45471C4 9.28595 4.0602 9.1241 4.16737 9.00476C4.27453 8.88543 4.41988 8.81839 4.57143 8.81839H11.4286C11.6374 8.81829 11.8422 8.7545 12.0207 8.63394C12.1992 8.51338 12.3447 8.34065 12.4413 8.13452C12.5379 7.92839 12.5819 7.69673 12.5686 7.4647C12.5553 7.23266 12.4852 7.00911 12.3659 6.81833C12.2465 6.62754 12.0825 6.47681 11.8917 6.3825C11.7008 6.28819 11.4904 6.2539 11.2833 6.28336C11.0762 6.31282 10.8803 6.4049 10.7168 6.5496C10.5534 6.6943 10.4287 6.8861 10.3562 7.10416C10.3302 7.18253 10.2905 7.25442 10.2396 7.31573C10.1886 7.37704 10.1272 7.42656 10.059 7.46147C9.99086 7.49638 9.91717 7.51599 9.84219 7.51919C9.7672 7.52239 9.69238 7.50911 9.622 7.48011C9.55162 7.45111 9.48706 7.40696 9.43201 7.35017C9.37695 7.29339 9.33248 7.22509 9.30113 7.14916C9.26978 7.07324 9.25217 6.99119 9.24929 6.90768C9.24642 6.82418 9.25835 6.74087 9.28439 6.66249C9.42928 6.22627 9.67873 5.84258 10.0056 5.55311C10.3326 5.26364 10.7245 5.07943 11.1388 5.02051C11.5531 4.96159 11.974 5.03019 12.3557 5.21888C12.7375 5.40757 13.0655 5.70912 13.3042 6.09079C13.5429 6.47246 13.6831 6.91967 13.7097 7.38383C13.7362 7.848 13.648 8.31139 13.4547 8.72368C13.2614 9.13597 12.9703 9.4814 12.6131 9.72246C12.2559 9.96352 11.8462 10.091 11.4286 10.091H4.57143ZM13.7143 13.909H5.71429C5.56273 13.909 5.41739 13.976 5.31022 14.0953C5.20306 14.2147 5.14286 14.3765 5.14286 14.5453C5.14286 14.714 5.20306 14.8759 5.31022 14.9952C5.41739 15.1146 5.56273 15.1816 5.71429 15.1816H13.7143C13.9231 15.1817 14.1279 15.2455 14.3064 15.3661C14.4849 15.4866 14.6304 15.6593 14.727 15.8655C14.8236 16.0716 14.8676 16.3033 14.8543 16.5353C14.841 16.7673 14.7709 16.9909 14.6516 17.1817C14.5322 17.3725 14.3682 17.5232 14.1774 17.6175C13.9865 17.7118 13.7761 17.7461 13.569 17.7166C13.3619 17.6872 13.166 17.5951 13.0025 17.4504C12.8391 17.3057 12.7144 17.1139 12.642 16.8958C12.6159 16.8175 12.5763 16.7456 12.5253 16.6843C12.4743 16.623 12.4129 16.5734 12.3448 16.5385C12.2766 16.5036 12.2029 16.484 12.1279 16.4808C12.0529 16.4776 11.9781 16.4909 11.9077 16.5199C11.8373 16.5489 11.7728 16.593 11.7177 16.6498C11.6627 16.7066 11.6182 16.7749 11.5868 16.8508C11.5555 16.9268 11.5379 17.0088 11.535 17.0923C11.5321 17.1758 11.5441 17.2591 11.5701 17.3375C11.715 17.7737 11.9644 18.1574 12.2914 18.4469C12.6183 18.7364 13.0102 18.9206 13.4245 18.9795C13.8388 19.0384 14.2597 18.9698 14.6414 18.7811C15.0232 18.5924 15.3512 18.2909 15.5899 17.9092C15.8286 17.5275 15.9689 17.0803 15.9954 16.6162C16.0219 16.152 15.9337 15.6886 15.7404 15.2763C15.5471 14.864 15.256 14.5186 14.8988 14.2775C14.5416 14.0365 14.132 13.909 13.7143 13.909ZM17.7143 7.54575C17.2475 7.54711 16.7922 7.70693 16.4091 8.00389C16.026 8.30084 15.7333 8.72081 15.5701 9.20778C15.5441 9.28615 15.5321 9.36947 15.535 9.45297C15.5379 9.53647 15.5555 9.61853 15.5868 9.69445C15.6182 9.77037 15.6627 9.83868 15.7177 9.89546C15.7728 9.95225 15.8373 9.9964 15.9077 10.0254C15.9781 10.0544 16.0529 10.0677 16.1279 10.0645C16.2029 10.0613 16.2766 10.0417 16.3448 10.0068C16.4129 9.97185 16.4743 9.92232 16.5253 9.86102C16.5763 9.79971 16.6159 9.72782 16.642 9.64945C16.7144 9.4313 16.8391 9.23942 17.0025 9.09464C17.166 8.94986 17.362 8.85772 17.5691 8.82823C17.7763 8.79873 17.9868 8.83301 18.1777 8.92733C18.3686 9.02166 18.5326 9.17243 18.652 9.36327C18.7714 9.55411 18.8415 9.77772 18.8548 10.0098C18.8681 10.2419 18.824 10.4737 18.7274 10.6798C18.6307 10.886 18.4852 11.0588 18.3066 11.1793C18.128 11.2999 17.9231 11.3636 17.7143 11.3637H5.14286C4.9913 11.3637 4.84596 11.4307 4.7388 11.5501C4.63163 11.6694 4.57143 11.8312 4.57143 12C4.57143 12.1688 4.63163 12.3306 4.7388 12.4499C4.84596 12.5693 4.9913 12.6363 5.14286 12.6363H17.7143C18.3205 12.6363 18.9019 12.3682 19.3305 11.8908C19.7592 11.4135 20 10.7661 20 10.091C20 9.41598 19.7592 8.76858 19.3305 8.29124C18.9019 7.81391 18.3205 7.54575 17.7143 7.54575Z" fill="white"/>
</g>
</svg>
