<svg width="20" height="21" viewBox="0 0 20 21" fill="none" xmlns="http://www.w3.org/2000/svg">
<path d="M10.0001 17.1667C13.6667 17.1667 16.6667 14.1667 16.6667 10.5C16.6667 6.83333 13.6667 3.83333 10.0001 3.83333C6.33341 3.83333 3.33341 6.83333 3.33341 10.5C3.33341 14.1667 6.33341 17.1667 10.0001 17.1667ZM10.0001 2.16667C14.5834 2.16667 18.3334 5.91667 18.3334 10.5C18.3334 15.0833 14.5834 18.8333 10.0001 18.8333C5.41675 18.8333 1.66675 15.0833 1.66675 10.5C1.66675 5.91667 5.41675 2.16667 10.0001 2.16667ZM14.1667 10.0833V11.3333H9.16675V6.33333H10.4167V10.0833H14.1667Z" fill="#8BA7C5"/>
</svg>
