<svg width="30" height="30" viewBox="0 0 30 30" fill="none" xmlns="http://www.w3.org/2000/svg">
<g id="Group 1053">
<rect id="Rectangle 780" width="30" height="30" fill="#607BFF"/>
<path id="Subtract" d="M17.0473 6L17.6165 5.81026L17.4797 5.4H17.0473V6ZM12.9538 6V5.4H12.5213L12.3846 5.81026L12.9538 6ZM17.9395 8.67668L17.3703 8.86642L17.4534 9.11578L17.6931 9.22374L17.9395 8.67668ZM19.1869 9.39793L18.8358 9.88453L19.0493 10.0385L19.3072 9.98574L19.1869 9.39793ZM21.9528 8.83192L22.4724 8.53192L22.2562 8.1574L21.8325 8.2441L21.9528 8.83192ZM23.9996 12.377L24.4485 12.7751L24.7354 12.4515L24.5192 12.077L23.9996 12.377ZM22.1278 14.4878L21.6789 14.0897L21.5046 14.2862L21.5308 14.5477L22.1278 14.4878ZM22.1282 15.9316L21.5312 15.872L21.5051 16.1332L21.6793 16.3297L22.1282 15.9316ZM23.9999 18.0423L24.5195 18.3423L24.7357 17.9678L24.4488 17.6442L23.9999 18.0423ZM21.9531 21.5873L21.8328 22.1752L22.2565 22.2619L22.4727 21.8873L21.9531 21.5873ZM19.191 21.0221L19.3113 20.4343L19.0532 20.3815L18.8396 20.5358L19.191 21.0221ZM17.9386 21.7468L17.6922 21.1997L17.4525 21.3076L17.3694 21.557L17.9386 21.7468ZM17.0473 24.4207V25.0207H17.4797L17.6165 24.6105L17.0473 24.4207ZM12.9538 24.4207L12.3846 24.6105L12.5213 25.0207H12.9538V24.4207ZM12.0625 21.747L12.6317 21.5572L12.5486 21.3078L12.3088 21.1998L12.0625 21.747ZM10.8095 21.022L11.1609 20.5357L10.9473 20.3814L10.6892 20.4342L10.8095 21.022ZM8.04675 21.5873L7.52713 21.8873L7.74336 22.2619L8.16704 22.1752L8.04675 21.5873ZM6 18.0423L5.55108 17.6442L5.26416 17.9678L5.48038 18.3423L6 18.0423ZM7.87238 15.9308L8.3213 16.3289L8.49546 16.1325L8.46942 15.8713L7.87238 15.9308ZM7.87275 14.4886L8.46976 14.5484L8.49595 14.287L8.32167 14.0905L7.87275 14.4886ZM6.00032 12.377L5.4807 12.077L5.26447 12.4515L5.55139 12.7751L6.00032 12.377ZM8.04706 8.83192L8.16735 8.2441L7.74368 8.1574L7.52745 8.53192L8.04706 8.83192ZM10.8136 9.39805L10.6933 9.98587L10.9512 10.0386L11.1647 9.88464L10.8136 9.39805ZM12.0616 8.67649L12.308 9.22356L12.5477 9.11561L12.6308 8.86623L12.0616 8.67649ZM17.0473 5.4H12.9538V6.6H17.0473V5.4ZM18.5087 8.48695L17.6165 5.81026L16.4781 6.18974L17.3703 8.86642L18.5087 8.48695ZM19.5379 8.91133C19.1171 8.60775 18.6645 8.3452 18.1859 8.12963L17.6931 9.22374C18.0973 9.40582 18.4799 9.62772 18.8358 9.88453L19.5379 8.91133ZM21.8325 8.2441L19.0666 8.81011L19.3072 9.98574L22.0731 9.41974L21.8325 8.2441ZM24.5192 12.077L22.4724 8.53192L21.4332 9.13192L23.4799 12.677L24.5192 12.077ZM22.5768 14.8858L24.4485 12.7751L23.5506 11.9789L21.6789 14.0897L22.5768 14.8858ZM22.7639 15.2115C22.7639 14.9472 22.7507 14.6857 22.7248 14.4279L21.5308 14.5477C21.5527 14.7658 21.5639 14.9873 21.5639 15.2115H22.7639ZM22.7252 15.9912C22.7508 15.7346 22.7639 15.4745 22.7639 15.2115H21.5639C21.5639 15.4346 21.5528 15.6549 21.5312 15.872L22.7252 15.9912ZM24.4488 17.6442L22.5771 15.5335L21.6793 16.3297L23.551 18.4404L24.4488 17.6442ZM22.4727 21.8873L24.5195 18.3423L23.4803 17.7423L21.4335 21.2873L22.4727 21.8873ZM19.0707 21.6099L21.8328 22.1752L22.0734 20.9995L19.3113 20.4343L19.0707 21.6099ZM18.1849 22.2938C18.6655 22.0774 19.12 21.8136 19.5424 21.5085L18.8396 20.5358C18.4823 20.7939 18.0982 21.0169 17.6922 21.1997L18.1849 22.2938ZM17.6165 24.6105L18.5078 21.9365L17.3694 21.557L16.4781 24.231L17.6165 24.6105ZM12.9538 25.0207H17.0473V23.8207H12.9538V25.0207ZM11.4933 21.9367L12.3846 24.6105L13.523 24.231L12.6317 21.5572L11.4933 21.9367ZM10.4581 21.5083C10.8807 21.8137 11.3353 22.0776 11.8162 22.2941L12.3088 21.1998C11.9027 21.017 11.5183 20.7939 11.1609 20.5357L10.4581 21.5083ZM8.16704 22.1752L10.9298 21.6098L10.6892 20.4342L7.92646 20.9995L8.16704 22.1752ZM5.48038 18.3423L7.52713 21.8873L8.56636 21.2873L6.51962 17.7423L5.48038 18.3423ZM7.42345 15.5327L5.55108 17.6442L6.44892 18.4404L8.3213 16.3289L7.42345 15.5327ZM7.23672 15.2115C7.23672 15.4742 7.24978 15.734 7.27534 15.9903L8.46942 15.8713C8.4478 15.6544 8.43672 15.4344 8.43672 15.2115H7.23672ZM7.27574 14.4287C7.24992 14.6863 7.23672 14.9475 7.23672 15.2115H8.43672C8.43672 14.9875 8.44792 14.7663 8.46976 14.5484L7.27574 14.4287ZM5.55139 12.7751L7.42383 14.8866L8.32167 14.0905L6.44924 11.9789L5.55139 12.7751ZM7.52745 8.53192L5.4807 12.077L6.51993 12.677L8.56668 9.13192L7.52745 8.53192ZM10.9339 8.81023L8.16735 8.2441L7.92677 9.41974L10.6933 9.98587L10.9339 8.81023ZM11.8152 8.12942C11.3364 8.34506 10.8836 8.60773 10.4626 8.91146L11.1647 9.88464C11.5208 9.6277 11.9036 9.4057 12.308 9.22356L11.8152 8.12942ZM12.3846 5.81026L11.4924 8.48675L12.6308 8.86623L13.523 6.18974L12.3846 5.81026ZM15.2107 18.3214C16.9293 18.3214 18.3226 16.9282 18.3226 15.2095H17.1226C17.1226 16.2654 16.2666 17.1214 15.2107 17.1214V18.3214ZM12.0988 15.2095C12.0988 16.9282 13.492 18.3214 15.2107 18.3214V17.1214C14.1548 17.1214 13.2988 16.2654 13.2988 15.2095H12.0988ZM15.2107 12.0976C13.492 12.0976 12.0988 13.4908 12.0988 15.2095H13.2988C13.2988 14.1536 14.1548 13.2976 15.2107 13.2976V12.0976ZM18.3226 15.2095C18.3226 13.4908 16.9293 12.0976 15.2107 12.0976V13.2976C16.2666 13.2976 17.1226 14.1536 17.1226 15.2095H18.3226Z" fill="#DFE3F6"/>
</g>
</svg>
