<svg width="30" height="30" viewBox="0 0 30 30" fill="none" xmlns="http://www.w3.org/2000/svg">
<g id="Group 1053">
<rect id="Rectangle 780" width="30" height="30" fill="#607BFF"/>
<g id="icon">
<path id="Vector" d="M11.1426 6.42857C11.8489 6.42857 12.5394 6.63803 13.1268 7.03047C13.7141 7.4229 14.1718 7.98068 14.4422 8.63327C14.7125 9.28587 14.7832 10.004 14.6454 10.6968C14.5076 11.3895 14.1674 12.0259 13.668 12.5254C13.1685 13.0249 12.5321 13.365 11.8393 13.5028C11.1465 13.6406 10.4284 13.5699 9.77585 13.2996C9.12326 13.0293 8.56548 12.5715 8.17305 11.9842C7.78061 11.3969 7.57115 10.7064 7.57115 10C7.57115 9.0528 7.94743 8.14439 8.6172 7.47462C9.28697 6.80485 10.1954 6.42857 11.1426 6.42857ZM11.1426 5C10.1537 5 9.18698 5.29324 8.36473 5.84265C7.54248 6.39206 6.90162 7.17295 6.52318 8.08658C6.14474 9.00021 6.04573 10.0055 6.23865 10.9755C6.43158 11.9454 6.90778 12.8363 7.60705 13.5355C8.30631 14.2348 9.19722 14.711 10.1671 14.9039C11.137 15.0969 12.1424 14.9978 13.056 14.6194C13.9696 14.241 14.7505 13.6001 15.2999 12.7779C15.8493 11.9556 16.1426 10.9889 16.1426 10C16.1426 8.67392 15.6158 7.40215 14.6781 6.46447C13.7404 5.52678 12.4687 5 11.1426 5Z" fill="#DFE3F6"/>
<path id="Vector_2" d="M18.2857 24.5714H16.8571V21C16.8571 20.0528 16.4809 19.1444 15.8111 18.4746C15.1413 17.8048 14.2329 17.4286 13.2857 17.4286H9C8.0528 17.4286 7.14439 17.8048 6.47462 18.4746C5.80485 19.1444 5.42857 20.0528 5.42857 21V24.5714H4V21C4 19.6739 4.52678 18.4021 5.46447 17.4645C6.40215 16.5268 7.67392 16 9 16H13.2857C14.6118 16 15.8836 16.5268 16.8212 17.4645C17.7589 18.4021 18.2857 19.6739 18.2857 21V24.5714Z" fill="#DFE3F6"/>
<path id="Vector_3" d="M18.2861 6.42871H26.2861V7.85728H18.2861V6.42871Z" fill="#DFE3F6"/>
<path id="Vector_4" d="M18.2861 10H26.2861V11.4286H18.2861V10Z" fill="#DFE3F6"/>
<path id="Vector_5" d="M18.2861 13.5713H23.2861V14.9999H18.2861V13.5713Z" fill="#DFE3F6"/>
</g>
</g>
</svg>
