<svg width="30" height="30" viewBox="0 0 30 30" fill="none" xmlns="http://www.w3.org/2000/svg">
<g id="Frame 1053">
<rect width="30" height="30" fill="#607BFF"/>
<g id="_&#229;&#175;&#131;&#226;&#145;&#184;&#226;&#148;&#129;_&#239;&#167;&#143;&#226;&#145;&#164;&#235;&#177;&#182;" clip-path="url(#clip0_695_32565)">
<g id="?&#235;&#141;&#137;&#236;&#148;&#160;??1">
<g id="Group">
<path id="Vector" d="M24.6218 8.84117L18.2262 7.21742C18.2262 7.21742 18.2035 7.19492 18.1883 7.18367C18.0749 7.10867 17.916 7.09367 17.7269 7.14242L15.2685 8.03492C15.2156 5.80367 13.3699 4.00367 11.1082 4.00367C9.11119 3.99992 7.4357 5.38742 7.0348 7.26242L5.6354 6.80117C5.51437 6.75992 5.34796 6.79367 5.2118 6.88367C5.07186 6.97367 5 7.10492 5 7.26242V22.8399C5 23.0537 5.1702 23.2599 5.37821 23.3012L11.8608 25.0037H11.9856C12.0348 25.0037 12.0915 24.9924 12.1445 24.9662L18.0446 23.3837L24.3684 25.0037H24.4932C24.618 25.0037 24.7012 24.9624 24.8336 24.8799C24.9433 24.7712 25 24.6437 25 24.5049V9.30242C25 9.08867 24.8298 8.88242 24.6218 8.84117ZM14.3079 8.59742C14.27 8.64242 14.2663 8.69117 14.2663 8.72492L14.2284 8.83367C14.1566 9.11867 13.4531 10.2587 11.7209 12.5237C11.6793 12.5537 11.6415 12.5912 11.6074 12.6362C11.4561 12.8462 11.3048 13.0337 11.1687 13.1987L11.112 13.2699C9.16793 10.7312 8.09001 9.17867 7.99168 8.76242V8.68742C7.95386 8.50367 7.95386 8.31242 7.95386 8.12867V7.97867C8.06732 6.30617 9.4705 4.99742 11.1498 4.99742C12.9123 4.99742 14.3419 6.41867 14.3419 8.16242C14.3419 8.31242 14.3419 8.45117 14.3079 8.59367V8.59742ZM7.02345 8.90117L7.06127 9.01367C7.11422 9.19367 7.26929 9.74492 9.01286 12.1299C9.84493 13.2887 10.7224 14.3912 10.7337 14.4062C10.8434 14.5149 10.972 14.5712 11.112 14.5712C11.1195 14.5712 11.1233 14.5712 11.1309 14.5712C11.1384 14.5712 11.146 14.5712 11.1498 14.5712C11.2708 14.5712 11.4297 14.5299 11.5166 14.4174L11.4939 20.7474L11.4826 23.8787L6.00983 22.4312V7.93367L6.95537 8.30117C6.96672 8.51117 6.99319 8.71742 7.02345 8.90117ZM12.4849 15.4037L12.4924 13.1462C14.0242 11.1287 14.913 9.79742 15.1437 9.17492C15.1588 9.13367 15.1702 9.09617 15.1778 9.06617C15.1853 9.04367 15.1967 9.01742 15.2005 8.99867V8.96117L17.3525 8.17367V22.4349L12.4584 23.8337L12.4849 15.4037ZM18.4039 8.25242L24.028 9.63992V23.8712L18.4039 22.4312V8.25242Z" fill="#DFE3F6"/>
<path id="Vector_2" d="M11.1118 5.96484C10.015 5.96484 9.11865 6.84984 9.11865 7.94109C9.11865 9.03234 10.0112 9.91734 11.1118 9.91734C12.2124 9.91734 13.105 9.03234 13.105 7.94109C13.105 6.84984 12.2124 5.96484 11.1118 5.96484ZM12.1292 7.94109C12.1292 8.48109 11.6527 8.95359 11.1081 8.95359C10.5634 8.95359 10.0869 8.48109 10.0869 7.94109C10.0869 7.40109 10.5634 6.92859 11.1081 6.92859C11.6527 6.92859 12.1292 7.38234 12.1292 7.94109Z" fill="#DFE3F6"/>
<path id="Vector_3" d="M10.3971 14.8899H9.42505V15.8536H10.3971V14.8899Z" fill="#DFE3F6"/>
<path id="Vector_4" d="M10.3971 16.1724H9.42505V17.1361H10.3971V16.1724Z" fill="#DFE3F6"/>
<path id="Vector_5" d="M10.3971 17.4961H9.42505V18.4598H10.3971V17.4961Z" fill="#DFE3F6"/>
<path id="Vector_6" d="M10.3971 18.8198H9.42505V19.7836H10.3971V18.8198Z" fill="#DFE3F6"/>
<path id="Vector_7" d="M10.3971 20.1436H9.42505V21.1073H10.3971V20.1436Z" fill="#DFE3F6"/>
</g>
</g>
</g>
</g>
<defs>
<clipPath id="clip0_695_32565">
<rect width="20" height="21" fill="white" transform="translate(5 4)"/>
</clipPath>
</defs>
</svg>
