<svg width="19" height="20" viewBox="0 0 19 20" fill="none" xmlns="http://www.w3.org/2000/svg">
<g id="&#236;&#149;&#140;&#235;&#166;&#188;&#236;&#131;&#157;&#236;&#132;&#177;&#236;&#149;&#132;&#236;&#157;&#180;&#236;&#189;&#152;">
<path id="Vector" d="M17.0891 13.6435C17.002 13.6013 16.912 13.5577 16.8206 13.5029C16.3837 13.264 16.0161 12.916 15.7537 12.4927C15.4913 12.0693 15.343 11.5852 15.3233 11.0875V7.07817C15.3233 3.70334 12.548 0.95874 9.13715 0.95874C5.72634 0.95874 2.95102 3.70334 2.95102 7.07817V11.0875C2.93251 11.5862 2.78493 12.0717 2.52272 12.4963C2.26051 12.9209 1.89264 13.2702 1.4551 13.5099C1.37356 13.5521 1.29202 13.5915 1.21047 13.6309C0.729641 13.8616 0.185543 14.1233 0.139147 14.7929C0.125689 14.9852 0.152222 15.1783 0.217074 15.3599C0.281925 15.5415 0.383687 15.7077 0.515938 15.848C0.648152 15.9883 0.807643 16.1001 0.98462 16.1766C1.1616 16.253 1.35232 16.2925 1.54508 16.2925H6.19874C6.27021 17.0226 6.61065 17.7001 7.15379 18.1929C7.69694 18.6858 8.40393 18.9587 9.13715 18.9587C9.87037 18.9587 10.5774 18.6858 11.1205 18.1929C11.6636 17.7001 12.0041 17.0226 12.0756 16.2925H16.7292C16.9215 16.2921 17.1117 16.2525 17.2882 16.176C17.4646 16.0996 17.6237 15.988 17.7555 15.848C17.8878 15.7077 17.9896 15.5415 18.0544 15.3599C18.1193 15.1783 18.1458 14.9852 18.1323 14.7929C18.0888 14.1261 17.5798 13.8813 17.0891 13.6435ZM9.13715 18.4026C8.55224 18.4022 7.98778 18.1872 7.55067 17.7983C7.11356 17.4094 6.83414 16.8737 6.76533 16.2925H11.509C11.4402 16.8737 11.1607 17.4094 10.7236 17.7983C10.2865 18.1872 9.72206 18.4022 9.13715 18.4026ZM17.345 15.4625C17.2665 15.5474 17.1713 15.615 17.0652 15.661C16.9592 15.707 16.8448 15.7304 16.7292 15.7298H1.54508C1.42941 15.73 1.31492 15.7065 1.20873 15.6606C1.10254 15.6147 1.00691 15.5475 0.927798 15.463C0.848683 15.3786 0.787771 15.2788 0.748844 15.1698C0.709918 15.0608 0.69381 14.9449 0.701522 14.8295C0.722611 14.5045 0.98271 14.361 1.45229 14.1373C1.53805 14.0965 1.62522 14.0543 1.71099 14.0107C2.24156 13.7248 2.68749 13.3041 3.00391 12.7909C3.32032 12.2777 3.49605 11.6902 3.5134 11.0875V7.07817C3.5134 4.01424 6.03565 1.52145 9.13715 1.52145C12.2386 1.52145 14.7609 4.01424 14.7609 7.07817V11.0875C14.7781 11.69 14.9536 12.2775 15.2698 12.7906C15.5859 13.3038 16.0316 13.7246 16.5619 14.0107C16.6575 14.06 16.7531 14.1064 16.8431 14.1514C17.3183 14.3807 17.5461 14.5059 17.57 14.8309C17.5776 14.9459 17.5616 15.0614 17.5229 15.17C17.4842 15.2786 17.4236 15.3782 17.345 15.4625Z" fill="#9EB7D2" stroke="#9EB7D2" stroke-width="0.2"/>
<path id="Vector_2" d="M16.2249 10.8881C16.2533 10.9107 16.287 10.9285 16.3241 10.9407C16.3611 10.9528 16.4008 10.9589 16.4408 10.9587C16.5211 10.9588 16.5982 10.9334 16.6552 10.8881C16.8075 10.7661 16.9284 10.6213 17.0109 10.4619C17.0933 10.3025 17.1357 10.1316 17.1357 9.95911C17.1357 9.78658 17.0933 9.61573 17.0109 9.45633C16.9284 9.29693 16.8075 9.1521 16.6552 9.0301C16.6269 9.00748 16.5934 8.98953 16.5565 8.97729C16.5196 8.96504 16.48 8.95874 16.4401 8.95874C16.4001 8.95874 16.3605 8.96504 16.3236 8.97729C16.2867 8.98953 16.2532 9.00748 16.2249 9.0301C16.1967 9.05273 16.1743 9.07959 16.159 9.10915C16.1437 9.13871 16.1358 9.17039 16.1358 9.20239C16.1358 9.23439 16.1437 9.26607 16.159 9.29563C16.1743 9.32519 16.1967 9.35205 16.2249 9.37468C16.3209 9.45136 16.3971 9.54245 16.449 9.64274C16.501 9.74302 16.5277 9.85053 16.5277 9.95911C16.5277 10.0677 16.501 10.1752 16.449 10.2755C16.3971 10.3758 16.3209 10.4669 16.2249 10.5435C16.1967 10.5662 16.1742 10.593 16.1589 10.6226C16.1436 10.6521 16.1357 10.6838 16.1357 10.7158C16.1357 10.7478 16.1436 10.7795 16.1589 10.8091C16.1742 10.8386 16.1967 10.8655 16.2249 10.8881Z" fill="#9EB7D2" stroke="#9EB7D2" stroke-width="0.2"/>
<path id="Vector_3" d="M17.6903 9.95379C17.6909 10.2365 17.6479 10.5167 17.5637 10.7779C17.4795 11.0392 17.3559 11.2764 17.1999 11.4759C17.169 11.5158 17.148 11.5667 17.1397 11.622C17.1314 11.6773 17.1362 11.7345 17.1533 11.7864C17.1705 11.8382 17.1993 11.8823 17.236 11.913C17.2728 11.9437 17.3158 11.9596 17.3597 11.9587C17.3888 11.9587 17.4176 11.9514 17.4444 11.937C17.4713 11.9227 17.4957 11.9017 17.5162 11.8752C17.7126 11.6229 17.8684 11.3233 17.9747 10.9936C18.081 10.664 18.1357 10.3106 18.1357 9.95379C18.1357 9.59695 18.081 9.24361 17.9747 8.91394C17.8684 8.58427 17.7126 8.28472 17.5162 8.03241C17.4743 7.98351 17.4194 7.95715 17.3629 7.95881C17.3063 7.96047 17.2524 7.99002 17.2123 8.04133C17.1722 8.09264 17.149 8.16179 17.1475 8.23445C17.146 8.30712 17.1664 8.37774 17.2043 8.4317C17.3595 8.63165 17.4823 8.86909 17.5657 9.13032C17.6492 9.39156 17.6915 9.67143 17.6903 9.95379Z" fill="#9EB7D2" stroke="#9EB7D2" stroke-width="0.2"/>
<path id="Vector_4" d="M1.61632 10.8881C1.67334 10.9334 1.75041 10.9588 1.83071 10.9587C1.8908 10.9588 1.94956 10.9446 1.99956 10.9179C2.04957 10.8912 2.08859 10.8533 2.11169 10.8088C2.13479 10.7644 2.14093 10.7155 2.12935 10.6683C2.11777 10.6211 2.08899 10.5777 2.04662 10.5435C1.95063 10.4669 1.87447 10.3758 1.82251 10.2755C1.77054 10.1752 1.74379 10.0677 1.74379 9.95911C1.74379 9.85054 1.77054 9.74303 1.82251 9.64274C1.87447 9.54245 1.95063 9.45136 2.04662 9.37468C2.07488 9.35205 2.09729 9.32519 2.11258 9.29563C2.12787 9.26607 2.13574 9.23439 2.13574 9.20239C2.13574 9.17039 2.12787 9.13871 2.11258 9.10915C2.09729 9.07959 2.07488 9.05273 2.04662 9.0301C2.01837 9.00748 1.98483 8.98953 1.94791 8.97729C1.91099 8.96504 1.87143 8.95874 1.83147 8.95874C1.79151 8.95874 1.75195 8.96504 1.71503 8.97729C1.67812 8.98953 1.64457 9.00748 1.61632 9.0301C1.46396 9.1521 1.3431 9.29693 1.26064 9.45633C1.17818 9.61573 1.13574 9.78658 1.13574 9.95911C1.13574 10.1316 1.17818 10.3025 1.26064 10.4619C1.3431 10.6213 1.46396 10.7661 1.61632 10.8881Z" fill="#9EB7D2" stroke="#9EB7D2" stroke-width="0.2"/>
<path id="Vector_5" d="M0.915258 11.9587C0.958914 11.9585 1.00154 11.9418 1.03778 11.9106C1.07402 11.8795 1.10226 11.8354 1.11894 11.7838C1.13562 11.7322 1.14 11.6754 1.13154 11.6206C1.12307 11.5659 1.10213 11.5155 1.07135 11.4759C0.755915 11.0721 0.578729 10.5246 0.578729 9.95381C0.578729 9.38299 0.755915 8.83552 1.07135 8.4317C1.10944 8.37775 1.12985 8.30712 1.12835 8.23446C1.12686 8.16179 1.10357 8.09264 1.0633 8.04133C1.02304 7.99002 0.968895 7.96047 0.912072 7.95881C0.85525 7.95715 0.800104 7.98351 0.758053 8.03241C0.560758 8.28473 0.404253 8.58427 0.297476 8.91395C0.1907 9.24362 0.135742 9.59697 0.135742 9.95381C0.135742 10.3106 0.1907 10.664 0.297476 10.9937C0.404253 11.3233 0.560758 11.6229 0.758053 11.8752C0.778651 11.9017 0.803147 11.9227 0.830127 11.9371C0.857108 11.9514 0.886041 11.9588 0.915258 11.9587Z" fill="#9EB7D2" stroke="#9EB7D2" stroke-width="0.2"/>
</g>
</svg>
