<svg width="24" height="24" viewBox="0 0 24 24" fill="none" xmlns="http://www.w3.org/2000/svg">
<g id="&#236;&#156;&#160;&#237;&#139;&#184; 8 &#236;&#158;&#172;&#236;&#131;&#157; &#236;&#149;&#132;&#236;&#157;&#180;&#236;&#189;&#152;">
<path id="Vector" d="M9.83244 7.15188C9.66516 7.05247 9.47186 6.99984 9.27463 7H8.52562C8.38622 7 8.25252 7.05268 8.15395 7.14645C8.05538 7.24021 8 7.36739 8 7.5V16.5C8 16.6326 8.05538 16.7598 8.15395 16.8536C8.25252 16.9473 8.38622 17 8.52562 17H9.27463C9.47186 17.0002 9.66516 16.9475 9.83244 16.8481L17.7404 12.4313C17.8194 12.3871 17.885 12.3241 17.9305 12.2485C17.976 12.1728 18 12.0872 18 12C18 11.9128 17.976 11.8272 17.9305 11.7515C17.885 11.6759 17.8194 11.6129 17.7404 11.5687L9.83244 7.15188Z" fill="#A3B2FF"/>
<path id="Vector_2" d="M23.7644 14.8066L22.0962 14.4003C22.0195 14.382 21.9386 14.3939 21.8708 14.4336C21.803 14.4733 21.7537 14.5375 21.7335 14.6124C21.1728 16.5838 19.9941 18.3314 18.3648 19.607C16.7355 20.8826 14.7386 21.6212 12.6577 21.718C10.5767 21.8147 8.5177 21.2647 6.7731 20.146C5.02851 19.0273 3.68708 17.3969 2.93942 15.4864C2.17145 13.5898 2.0398 11.5019 2.56366 9.52669C3.08751 7.55151 4.23951 5.79224 5.85185 4.50515C7.69033 3.00768 10.0172 2.21259 12.4046 2.26603C14.792 2.31948 17.0796 3.21788 18.8468 4.79606L17.252 6.363C17.2064 6.40687 17.1701 6.45922 17.1453 6.51702C17.1205 6.57481 17.1077 6.63688 17.1076 6.69959C17.1071 6.76304 17.1194 6.82596 17.1438 6.88471C17.1682 6.94347 17.2042 6.9969 17.2496 7.04193C17.2951 7.08697 17.3493 7.12271 17.4089 7.1471C17.4685 7.17149 17.5324 7.18404 17.597 7.18404H22.919C23.0001 7.18404 23.0779 7.15238 23.1353 7.09602C23.1927 7.03966 23.2249 6.96322 23.2249 6.88351V1.65437C23.2249 1.59092 23.2121 1.5281 23.1873 1.46952C23.1625 1.41095 23.1261 1.35778 23.0802 1.31308C23.0344 1.26838 22.98 1.23304 22.9202 1.20909C22.8604 1.18514 22.7964 1.17305 22.7318 1.17353C22.668 1.17361 22.6048 1.1862 22.546 1.21056C22.4872 1.23491 22.4339 1.27055 22.3893 1.31537L20.4929 3.17863C18.5345 1.40402 16.0392 0.307286 13.3874 0.0556079C10.7356 -0.196071 8.07277 0.411114 5.80483 1.7846C3.5369 3.1581 1.78825 5.22255 0.82545 7.66328C-0.137353 10.104 -0.261499 12.7871 0.471936 15.3036C1.20537 17.8201 2.75616 20.0319 4.8879 21.602C7.01963 23.172 9.61539 24.014 12.2795 23.9998C14.9436 23.9856 17.5299 23.1159 19.6441 21.5232C21.7584 19.9305 23.2846 17.7022 23.9901 15.178C24.0004 15.1391 24.0027 15.0985 23.9969 15.0587C23.991 15.0188 23.9772 14.9805 23.9562 14.946C23.9352 14.9114 23.9075 14.8813 23.8745 14.8574C23.8416 14.8335 23.8042 14.8162 23.7644 14.8066Z" fill="#A3B2FF"/>
</g>
</svg>
