<svg width="24" height="24" viewBox="0 0 24 24" fill="none" xmlns="http://www.w3.org/2000/svg">
<g id="&#236;&#156;&#160;&#237;&#139;&#184; 12 &#236;&#167;&#128;&#236;&#151;&#173;">
<path id="Vector" d="M21.3544 22.1913C21.1311 22.1913 20.919 22.102 20.7628 21.9457L13.6407 14.824C13.317 14.5002 13.317 13.9644 13.6407 13.6407L22.2698 5.012C22.4819 4.79991 22.8056 4.72177 23.0958 4.79991C23.3861 4.88921 23.6092 5.12363 23.6762 5.41386C23.8883 6.36268 24 7.42313 24 8.65103V15.3486C24 18.4407 23.3526 20.5281 21.946 21.9457C21.7898 22.102 21.5553 22.1355 21.3544 22.1913ZM15.4156 14.2323L21.2874 20.1039C21.9907 19.0211 22.3256 17.4807 22.3256 15.3486V8.65103C22.3256 8.19336 22.3143 7.76918 22.2808 7.36732L15.4156 14.2323Z" fill="#A3B2FF"/>
<path id="Vector_2" d="M5.60383 23.6982C5.53686 23.6982 5.48106 23.6871 5.41408 23.6759C1.71912 22.8276 0 20.182 0 15.3486V8.65103C0 2.58973 2.58982 0 8.65135 0H15.3492C20.1828 0 22.8284 1.71905 23.6768 5.41388C23.7438 5.69295 23.6545 5.99433 23.4535 6.19525L6.19547 23.4527C6.03919 23.6089 5.82709 23.6982 5.60383 23.6982ZM8.65135 1.67439C3.50519 1.67439 1.67446 3.50506 1.67446 8.65103V15.3486C1.67446 19.222 2.74612 21.1643 5.34711 21.9345L21.9242 5.35806C21.1651 2.75717 19.2116 1.68554 15.338 1.68554H8.65135V1.67439Z" fill="#A3B2FF"/>
<path id="Vector_3" d="M15.3496 24H8.65179C7.42385 24 6.37454 23.8995 5.41452 23.6763C5.11312 23.6093 4.87867 23.3861 4.80053 23.0958C4.71123 22.8056 4.80053 22.4931 5.01263 22.2698L13.6417 13.6411C13.9654 13.3174 14.5013 13.3174 14.825 13.6411L21.947 20.7629C22.1033 20.9191 22.1926 21.1312 22.1926 21.3545C22.1926 21.5777 22.1033 21.7898 21.947 21.9461C20.5293 23.3526 18.4418 24 15.3496 24ZM7.36805 22.281C7.76992 22.3145 8.1941 22.3256 8.65179 22.3256H15.3496C17.4929 22.3256 19.0223 21.9907 20.1051 21.2875L14.2333 15.416L7.36805 22.281Z" fill="#A3B2FF"/>
<path id="Vector_4" d="M8.78413 13.4618C8.08086 13.4618 7.37757 13.205 6.81942 12.6804C5.0445 10.9948 4.3301 9.14187 4.75429 7.33352C5.17849 5.48053 6.79711 4.2303 8.78413 4.2303C10.7712 4.2303 12.3898 5.48053 12.814 7.33352C13.2271 9.15303 12.5126 10.9948 10.7377 12.6804C10.1907 13.1938 9.4874 13.4618 8.78413 13.4618ZM6.38408 7.70188C6.02687 9.22 7.05386 10.5819 7.98039 11.4638C8.43807 11.899 9.14136 11.899 9.58788 11.4638C10.5033 10.5931 11.5303 9.23116 11.1842 7.70188C10.8828 6.37353 9.6995 5.89353 8.78413 5.89353C7.86876 5.89353 6.69665 6.37353 6.38408 7.70188Z" fill="#A3B2FF"/>
<path id="Vector_5" d="M8.81943 9.19827C8.20546 9.19827 7.70312 8.69595 7.70312 8.082C7.70312 7.46805 8.1943 6.96573 8.81943 6.96573H8.8306C9.44457 6.96573 9.94691 7.46805 9.94691 8.082C9.94691 8.69595 9.4334 9.19827 8.81943 9.19827Z" fill="#A3B2FF"/>
</g>
</svg>
