<svg width="24" height="24" viewBox="0 0 24 24" fill="none" xmlns="http://www.w3.org/2000/svg">
<g id="&#236;&#156;&#160;&#237;&#139;&#184; 1 &#237;&#149;&#132;&#237;&#132;&#176;">
<g id="Group 663">
<path id="Ellipse 203 (Stroke)" fill-rule="evenodd" clip-rule="evenodd" d="M7.8438 6.86598C9.19868 6.86598 10.297 5.65306 10.297 4.15685C10.297 2.66064 9.19868 1.44772 7.8438 1.44772C6.48891 1.44772 5.39056 2.66064 5.39056 4.15685C5.39056 5.65306 6.48891 6.86598 7.8438 6.86598ZM7.8438 8.3137C9.92271 8.3137 11.608 6.45261 11.608 4.15685C11.608 1.86109 9.92271 0 7.8438 0C5.76488 0 4.07959 1.86109 4.07959 4.15685C4.07959 6.45261 5.76488 8.3137 7.8438 8.3137Z" fill="#A3B2FF"/>
<path id="Vector 107 (Stroke)" fill-rule="evenodd" clip-rule="evenodd" d="M10.5435 4.15684C10.5435 3.75707 10.8369 3.43298 11.1989 3.43298H23.3439C23.7059 3.43298 23.9994 3.75707 23.9994 4.15684C23.9994 4.55662 23.7059 4.8807 23.3439 4.8807H11.1989C10.8369 4.8807 10.5435 4.55662 10.5435 4.15684Z" fill="#A3B2FF"/>
<path id="Vector 108 (Stroke)" fill-rule="evenodd" clip-rule="evenodd" d="M-6.02891e-08 4.15684C-2.69923e-08 3.75707 0.293471 3.43298 0.655487 3.43298L4.20665 3.43298C4.56867 3.43298 4.86214 3.75707 4.86214 4.15684C4.86214 4.55662 4.56867 4.8807 4.20665 4.8807L0.655487 4.8807C0.293471 4.8807 -9.35858e-08 4.55662 -6.02891e-08 4.15684Z" fill="#A3B2FF"/>
</g>
<g id="Group 664">
<path id="Ellipse 203 (Stroke)_2" fill-rule="evenodd" clip-rule="evenodd" d="M7.8438 22.5523C9.19868 22.5523 10.297 21.3394 10.297 19.8432C10.297 18.3469 9.19868 17.134 7.8438 17.134C6.48891 17.134 5.39056 18.3469 5.39056 19.8432C5.39056 21.3394 6.48891 22.5523 7.8438 22.5523ZM7.8438 24C9.92271 24 11.608 22.1389 11.608 19.8432C11.608 17.5474 9.92271 15.6863 7.8438 15.6863C5.76488 15.6863 4.07959 17.5474 4.07959 19.8432C4.07959 22.1389 5.76488 24 7.8438 24Z" fill="#A3B2FF"/>
<path id="Vector 107 (Stroke)_2" fill-rule="evenodd" clip-rule="evenodd" d="M10.5435 19.8432C10.5435 19.4434 10.8369 19.1193 11.1989 19.1193H23.3439C23.7059 19.1193 23.9994 19.4434 23.9994 19.8432C23.9994 20.2429 23.7059 20.567 23.3439 20.567H11.1989C10.8369 20.567 10.5435 20.2429 10.5435 19.8432Z" fill="#A3B2FF"/>
<path id="Vector 108 (Stroke)_2" fill-rule="evenodd" clip-rule="evenodd" d="M-6.02891e-08 19.8432C-2.69923e-08 19.4434 0.293471 19.1193 0.655487 19.1193L4.20665 19.1193C4.56867 19.1193 4.86214 19.4434 4.86214 19.8432C4.86214 20.2429 4.56867 20.567 4.20665 20.567L0.655487 20.567C0.293471 20.567 -9.35858e-08 20.2429 -6.02891e-08 19.8432Z" fill="#A3B2FF"/>
</g>
<g id="Group 662">
<path id="Ellipse 203 (Stroke)_3" fill-rule="evenodd" clip-rule="evenodd" d="M16.1562 14.7091C14.8013 14.7091 13.703 13.4962 13.703 12C13.703 10.5038 14.8013 9.29089 16.1562 9.29089C17.5111 9.29089 18.6094 10.5038 18.6094 12C18.6094 13.4962 17.5111 14.7091 16.1562 14.7091ZM16.1562 16.1569C14.0773 16.1569 12.392 14.2958 12.392 12C12.392 9.70426 14.0773 7.84317 16.1562 7.84317C18.2351 7.84317 19.9204 9.70426 19.9204 12C19.9204 14.2958 18.2351 16.1569 16.1562 16.1569Z" fill="#A3B2FF"/>
<path id="Vector 107 (Stroke)_3" fill-rule="evenodd" clip-rule="evenodd" d="M13.4565 12C13.4565 11.6002 13.1631 11.2762 12.8011 11.2762H0.656069C0.294054 11.2762 0.000581741 11.6002 0.000581741 12C0.000581741 12.3998 0.294054 12.7239 0.656069 12.7239H12.8011C13.1631 12.7239 13.4565 12.3998 13.4565 12Z" fill="#A3B2FF"/>
<path id="Vector 108 (Stroke)_3" fill-rule="evenodd" clip-rule="evenodd" d="M24 12C24 11.6002 23.7065 11.2762 23.3445 11.2762L19.7933 11.2762C19.4313 11.2762 19.1379 11.6002 19.1379 12C19.1379 12.3998 19.4313 12.7239 19.7933 12.7239L23.3445 12.7239C23.7065 12.7239 24 12.3998 24 12Z" fill="#A3B2FF"/>
</g>
</g>
</svg>
