<svg width="24" height="24" viewBox="0 0 24 24" fill="none" xmlns="http://www.w3.org/2000/svg">
<path id="&#236;&#156;&#160;&#237;&#139;&#184; 5 &#235;&#130;&#160;&#236;&#148;&#168;" d="M0 15.5252C0 15.1549 0.099128 14.8558 0.297384 14.6421C0.451583 14.4285 0.682882 14.3145 0.980266 14.3145H3.27123C3.53557 14.3145 3.76687 14.4285 3.93208 14.6564C4.10831 14.8843 4.19642 15.1691 4.19642 15.511C4.19642 15.8528 4.10831 16.1377 3.93208 16.3798C3.75585 16.622 3.53557 16.7359 3.27123 16.7359H0.980266C0.715925 16.7359 0.484626 16.622 0.28637 16.3798C0.0881135 16.1519 0 15.8671 0 15.5252ZM1.01331 22.7608C1.01331 22.4332 1.11244 22.1484 1.29968 21.892C1.47591 21.6641 1.70721 21.5644 1.97155 21.5644H22.0285C22.2928 21.5644 22.5241 21.6783 22.7113 21.9062C22.8986 22.1341 22.9867 22.419 22.9867 22.7608C22.9867 23.1027 22.8876 23.3875 22.7003 23.6297C22.5131 23.8718 22.2818 24 22.0285 24H1.98256C1.71822 24 1.49794 23.8718 1.31069 23.6297C1.12345 23.3875 1.01331 23.1027 1.01331 22.7608ZM3.27123 5.42671C3.27123 5.05638 3.35934 4.78576 3.52455 4.58635C3.71179 4.32997 3.94309 4.20178 4.20743 4.20178C4.47178 4.20178 4.69206 4.32997 4.8793 4.58635L6.46535 6.66588C6.66361 6.89377 6.75172 7.17863 6.75172 7.52047C6.75172 7.87656 6.66361 8.16143 6.48738 8.38932C6.31115 8.61721 6.09087 8.73116 5.82653 8.73116C5.58421 8.73116 5.36393 8.61721 5.16567 8.38932L3.52455 6.29555C3.35934 6.09614 3.27123 5.81128 3.27123 5.42671ZM6.13492 15.5252C6.13492 16.7644 6.33318 17.8754 6.71868 18.8439C6.75172 18.9721 6.83983 19.0433 6.98302 19.0433H8.8224C8.8995 19.0433 8.95457 19.0148 8.97659 18.9579C8.99862 18.9009 8.96558 18.8154 8.8995 18.73C8.31574 17.8042 8.01836 16.7359 8.01836 15.5252C8.01836 14.1151 8.41487 12.9044 9.19688 11.9074C9.97889 10.9104 10.9151 10.4119 12.0055 10.4119C13.0959 10.4119 14.0321 10.9104 14.8141 11.9074C15.5961 12.9044 15.9706 14.1151 15.9706 15.5252C15.9706 16.7501 15.6732 17.8184 15.0895 18.73C15.0454 18.8154 15.0234 18.8724 15.0234 18.9009C15.0124 18.9436 15.0234 18.9863 15.0564 19.0006C15.0785 19.0291 15.1225 19.0433 15.1666 19.0433H17.039C17.1381 19.0433 17.2152 18.9721 17.2703 18.8439C17.6889 17.8326 17.8871 16.7359 17.8871 15.5252C17.8871 14.1579 17.6228 12.8902 17.0941 11.7223C16.5654 10.5543 15.8495 9.62849 14.9463 8.94481C14.0431 8.26113 13.0629 7.91929 12.0055 7.91929C10.9481 7.91929 9.96788 8.26113 9.06471 8.94481C8.16154 9.62849 7.44562 10.5543 6.91693 11.7223C6.38825 12.8902 6.13492 14.1579 6.13492 15.5252ZM11.0583 4.23027V1.25341C11.0583 0.911573 11.1464 0.626707 11.3336 0.370327C11.5209 0.113947 11.7412 0 12.0055 0C12.2698 0 12.4901 0.12819 12.6884 0.370327C12.8756 0.612463 12.9748 0.911573 12.9748 1.25341V4.23027C12.9748 4.57211 12.8756 4.85697 12.6884 5.11335C12.4901 5.36973 12.2698 5.48368 12.0055 5.48368C11.7412 5.48368 11.5209 5.35549 11.3336 5.11335C11.1464 4.85697 11.0583 4.57211 11.0583 4.23027ZM17.2483 7.52047C17.2483 7.17863 17.3364 6.89377 17.5126 6.66588L19.0987 4.58635C19.2859 4.32997 19.5172 4.20178 19.7816 4.20178C20.0569 4.20178 20.2882 4.31573 20.4644 4.55786C20.6517 4.8 20.7398 5.08487 20.7398 5.42671C20.7398 5.79703 20.6517 6.0819 20.4865 6.29555L18.8233 8.38932C18.6471 8.60297 18.4268 8.70267 18.1735 8.70267C17.8981 8.71691 17.6778 8.60297 17.5016 8.38932C17.3364 8.17567 17.2483 7.87656 17.2483 7.52047ZM19.8146 15.5252C19.8146 15.1407 19.9027 14.8558 20.0789 14.6421C20.2331 14.4285 20.4534 14.3145 20.7288 14.3145H23.0307C23.2951 14.3145 23.5264 14.4285 23.7136 14.6564C23.9009 14.8843 24 15.1691 24 15.511C24 15.8528 23.9009 16.1377 23.7136 16.3798C23.5154 16.622 23.2951 16.7359 23.0307 16.7359H20.7288C20.4754 16.7359 20.2552 16.622 20.0789 16.3798C19.9027 16.1519 19.8146 15.8671 19.8146 15.5252Z" fill="#A3B2FF"/>
</svg>
