<svg width="24" height="24" viewBox="0 0 24 24" fill="none" xmlns="http://www.w3.org/2000/svg">
<path id="&#236;&#156;&#160;&#237;&#139;&#184; 16 &#237;&#148;&#132;&#235;&#166;&#176;&#237;&#138;&#184;" d="M4.5 2.57143C4.5 1.15126 5.50736 0 6.75 0H17.25C18.4926 0 19.5 1.15126 19.5 2.57143V3.42857H20.25C22.3211 3.42857 24 5.34735 24 7.71429V16.2857C24 17.7058 22.9926 18.8571 21.75 18.8571H19.5V21.4286C19.5 22.8487 18.4926 24 17.25 24H6.75C5.50736 24 4.5 22.8487 4.5 21.4286V18.8571H2.25C1.00735 18.8571 0 17.7058 0 16.2857V7.71429C0 5.34735 1.67894 3.42857 3.75 3.42857H4.5V2.57143ZM6 3.42857H18V2.57143C18 2.09805 17.6642 1.71429 17.25 1.71429H6.75C6.33579 1.71429 6 2.09805 6 2.57143V3.42857ZM4.5 17.1429V14.5714C4.5 13.1513 5.50736 12 6.75 12H17.25C18.4926 12 19.5 13.1513 19.5 14.5714V17.1429H21.75C22.1642 17.1429 22.5 16.759 22.5 16.2857V7.71429C22.5 6.29412 21.4926 5.14286 20.25 5.14286H3.75C2.50735 5.14286 1.5 6.29412 1.5 7.71429V16.2857C1.5 16.759 1.83579 17.1429 2.25 17.1429H4.5ZM6.75 13.7143C6.33579 13.7143 6 14.0981 6 14.5714V21.4286C6 21.9019 6.33579 22.2857 6.75 22.2857H17.25C17.6642 22.2857 18 21.9019 18 21.4286V14.5714C18 14.0981 17.6642 13.7143 17.25 13.7143H6.75Z" fill="#A3B2FF"/>
</svg>
