<svg width="24" height="24" viewBox="0 0 24 24" fill="none" xmlns="http://www.w3.org/2000/svg">
<g id="&#236;&#156;&#160;&#237;&#139;&#184; 4 &#236;&#139;&#156;&#234;&#179;&#132;">
<path id="Vector (Stroke)" fill-rule="evenodd" clip-rule="evenodd" d="M8.67475 1.57539C8.92215 2.14244 8.66312 2.80273 8.0962 3.05018C6.63505 3.68794 5.35235 4.674 4.36023 5.92215C3.3681 7.1703 2.69677 8.64254 2.40492 10.2101C2.11307 11.7778 2.20959 13.393 2.68604 14.9147C3.16248 16.4364 4.00436 17.8182 5.13805 18.9392C6.27174 20.0603 7.66274 20.8865 9.18942 21.3457C10.7161 21.8048 12.332 21.8829 13.8958 21.5731C15.4597 21.2633 16.9238 20.575 18.1603 19.5685C19.3967 18.562 20.3679 17.2678 20.9888 15.7992C21.2297 15.2293 21.8868 14.9627 22.4565 15.2037C23.0262 15.4446 23.2928 16.1019 23.0519 16.6718C22.2885 18.4775 21.0945 20.0687 19.5742 21.3062C18.054 22.5438 16.2538 23.39 14.331 23.7709C12.4083 24.1518 10.4215 24.0558 8.54443 23.4912C6.66735 22.9267 4.9571 21.9109 3.56321 20.5325C2.16932 19.1541 1.13423 17.4552 0.548431 15.5843C-0.0373681 13.7134 -0.156038 11.7274 0.202796 9.79998C0.56163 7.87259 1.38704 6.06245 2.60687 4.52783C3.8267 2.99322 5.4038 1.78084 7.20029 0.99671C7.76722 0.749259 8.42736 1.00835 8.67475 1.57539Z" fill="#A3B2FF"/>
<path id="Vector (Stroke)_2" fill-rule="evenodd" clip-rule="evenodd" d="M11.2084 0.32811C11.4184 0.118025 11.7033 0 12.0004 0C13.5762 0 15.1366 0.31045 16.5924 0.913623C18.0483 1.5168 19.3711 2.40088 20.4854 3.5154C21.5997 4.62992 22.4836 5.95305 23.0866 7.40924C23.6897 8.86543 24 10.4262 24 12.0023C24 12.621 23.4986 13.1226 22.8801 13.1226H12.0004C11.3818 13.1226 10.8804 12.621 10.8804 12.0023V1.12024C10.8804 0.823132 10.9984 0.538195 11.2084 0.32811ZM13.1204 2.30496V10.8821H21.6956C21.592 9.98483 21.3641 9.10445 21.0172 8.26663C20.5267 7.08227 19.8078 6.00613 18.9015 5.09966C17.9952 4.19318 16.9193 3.47413 15.7352 2.98355C14.8976 2.63651 14.0174 2.40862 13.1204 2.30496Z" fill="#A3B2FF"/>
</g>
</svg>
