<svg width="24" height="24" viewBox="0 0 24 24" fill="none" xmlns="http://www.w3.org/2000/svg">
<path id="&#236;&#156;&#160;&#237;&#139;&#184; 9 &#234;&#188;&#172;&#235;&#182;&#128;&#235;&#158;&#145; &#236;&#187;&#164;&#235;&#184;&#140;" fill-rule="evenodd" clip-rule="evenodd" d="M8.19515 21.682C7.70095 23.0324 6.36746 24 4.8 24C2.81177 24 1.2 22.4433 1.2 20.5229C1.2 18.6026 2.81177 17.0459 4.8 17.0459C6.36746 17.0459 7.70095 18.0134 8.19515 19.3639H18.6C20.2569 19.3639 21.6 18.0666 21.6 16.4664C21.6 14.8661 20.2569 13.5688 18.6 13.5688H5.4C2.41766 13.5688 0 11.2337 0 8.3532C0 5.4727 2.41766 3.1376 5.4 3.1376H9.10295L7.55147 1.63911L9.24853 0L13.6971 4.29662L9.24853 8.59324L7.55147 6.95413L9.10295 5.45564H5.4C3.74315 5.45564 2.4 6.75292 2.4 8.3532C2.4 9.95347 3.74315 11.2508 5.4 11.2508H18.6C21.5823 11.2508 24 13.5859 24 16.4664C24 19.3468 21.5823 21.682 18.6 21.682H8.19515ZM4.8 19.3639C4.13726 19.3639 3.6 19.8828 3.6 20.5229C3.6 21.163 4.13726 21.682 4.8 21.682C5.46274 21.682 6 21.163 6 20.5229C6 19.8828 5.46274 19.3639 4.8 19.3639ZM19.2 0.819553C21.1882 0.819553 22.8 2.37629 22.8 4.29662C22.8 6.21695 21.1882 7.77369 19.2 7.77369C17.2118 7.77369 15.6 6.21695 15.6 4.29662C15.6 2.37629 17.2118 0.819553 19.2 0.819553ZM19.2 3.1376C18.5373 3.1376 18 3.65651 18 4.29662C18 4.93673 18.5373 5.45564 19.2 5.45564C19.8627 5.45564 20.4 4.93673 20.4 4.29662C20.4 3.65651 19.8627 3.1376 19.2 3.1376Z" fill="#A3B2FF"/>
</svg>
