<svg width="24" height="24" viewBox="0 0 24 24" fill="none" xmlns="http://www.w3.org/2000/svg">
<g id="&#236;&#156;&#160;&#237;&#139;&#184; 7 &#236;&#177;&#133;&#236;&#158;&#144;">
<path id="Vector" d="M23.5616 12.5663C23.3478 12.891 23.0646 13.1695 22.7304 13.3838L14.0149 18.9695C12.7973 19.7498 11.2026 19.7498 9.98498 18.9695L1.26954 13.3838C0.173255 12.6812 -0.251866 11.3878 0.147122 10.2521L10.0021 16.4886C11.1363 17.2065 12.5923 17.2514 13.7667 16.6231L13.9976 16.4886L23.8519 10.2515C24.1136 10.9984 24.0354 11.8466 23.5616 12.5663ZM23.8519 14.6968C24.1136 15.4437 24.0354 16.2919 23.5616 17.0116C23.3478 17.3363 23.0646 17.6148 22.7304 17.8291L14.0149 23.4148C12.7973 24.1951 11.2026 24.1951 9.98498 23.4148L1.26954 17.8291C0.173255 17.1265 -0.251866 15.8331 0.147122 14.6974L10.0021 20.9339C11.1363 21.6518 12.5923 21.6967 13.7667 21.0685L13.9976 20.9339L23.8519 14.6968ZM13.9976 0.574306L23.1673 6.37844C23.8294 6.79746 24.0082 7.64668 23.5669 8.27522C23.4613 8.42547 23.3256 8.5544 23.1673 8.65457L13.9976 14.4588C12.7879 15.2245 11.2119 15.2245 10.0021 14.4588L0.832529 8.65457C0.170532 8.23554 -0.00834706 7.38634 0.43298 6.7578C0.538489 6.60753 0.67428 6.4786 0.832529 6.37844L10.0021 0.574306C11.2119 -0.191435 12.7879 -0.191435 13.9976 0.574306ZM11.3672 2.19065L11.2008 2.2814L2.93138 7.51651L11.2008 12.7516C11.631 13.0238 12.1768 13.054 12.6327 12.8423L12.799 12.7516L21.0671 7.51651L12.799 2.2814C12.3689 2.00914 11.823 1.97889 11.3672 2.19065Z" fill="#A3B2FF"/>
</g>
</svg>
