<svg width="24" height="24" viewBox="0 0 24 24" fill="none" xmlns="http://www.w3.org/2000/svg">
<g id="&#236;&#156;&#160;&#237;&#139;&#184; 11 &#235;&#179;&#180;&#237;&#138;&#184;,&#236;&#154;&#148;&#237;&#138;&#184;">
<path id="Vector (Stroke)" fill-rule="evenodd" clip-rule="evenodd" d="M9.11134 12.4135C9.11071 12.4137 9.11008 12.414 9.10945 12.4142L2.51085 14.9938C2.51076 14.9939 2.51094 14.9938 2.51085 14.9938C2.11848 15.1478 1.84706 15.6514 1.93713 16.0514C1.93711 16.0513 1.93715 16.0514 1.93713 16.0514L2.32746 17.777C2.32742 17.7768 2.32751 17.7772 2.32746 17.777C2.91262 20.3461 4.93566 22.1329 7.90803 22.1329H12.4438C15.4161 22.1329 17.439 20.3468 18.0242 17.7778C18.0242 17.778 18.0243 17.7775 18.0242 17.7778L18.4147 16.0516C18.4147 16.0517 18.4147 16.0515 18.4147 16.0516C18.5047 15.6516 18.2337 15.1481 17.8414 14.994C17.8413 14.9939 17.8415 14.994 17.8414 14.994L11.2424 12.4142C11.2418 12.414 11.2412 12.4137 11.2405 12.4135C10.5539 12.1492 9.79799 12.1492 9.11134 12.4135ZM8.4028 10.6745C9.54456 10.2341 10.8073 10.2341 11.9491 10.6745L11.9531 10.676L18.5569 13.2577C19.8224 13.7538 20.5808 15.1633 20.2899 16.4532L19.8988 18.1823C19.1307 21.556 16.3702 24.004 12.4438 24.004H7.90803C3.98167 24.004 1.22116 21.556 0.453041 18.1823L0.0620607 16.4538C-0.228855 15.1639 0.528804 13.7541 1.79425 13.2579L8.4028 10.6745Z" fill="#A3B2FF"/>
<path id="Vector (Stroke)_2" fill-rule="evenodd" clip-rule="evenodd" d="M10.1759 10.8199C10.6194 10.8199 10.9788 11.1702 10.9788 11.6023V22.7458C10.9788 23.1779 10.6194 23.5282 10.1759 23.5282C9.73251 23.5282 9.37305 23.1779 9.37305 22.7458V11.6023C9.37305 11.1702 9.73251 10.8199 10.1759 10.8199Z" fill="#A3B2FF"/>
<path id="Vector (Stroke)_3" fill-rule="evenodd" clip-rule="evenodd" d="M6.3642 8.06244C5.23535 8.06244 4.30841 8.96577 4.30841 10.0659V12.4378L8.46046 10.8148C9.56508 10.3887 10.7865 10.3888 11.8911 10.8149L11.8945 10.8162L16.0431 12.4378V10.0659C16.0431 8.96577 15.1162 8.06244 13.9874 8.06244H6.3642ZM2.70264 10.0659C2.70264 8.10152 4.34851 6.49757 6.3642 6.49757H13.9874C16.003 6.49757 17.6489 8.10152 17.6489 10.0659V13.5946C17.6489 13.8544 17.5166 14.0972 17.2958 14.2427C17.075 14.3883 16.7945 14.4175 16.5471 14.3208L11.3001 12.2699C11.2996 12.2697 11.299 12.2695 11.2985 12.2693C10.5745 11.9904 9.77704 11.9904 9.05303 12.2693L3.80441 14.3208C3.55702 14.4175 3.27651 14.3883 3.05571 14.2427C2.83492 14.0972 2.70264 13.8544 2.70264 13.5946V10.0659Z" fill="#A3B2FF"/>
<path id="Vector (Stroke)_4" fill-rule="evenodd" clip-rule="evenodd" d="M8.7465 5.27702C8.66583 5.27702 8.5965 5.34459 8.5965 5.42321V6.498H11.7552V5.42321C11.7552 5.34459 11.6859 5.27702 11.6052 5.27702H8.7465ZM6.99072 5.42321C6.99072 4.48035 7.77899 3.71217 8.7465 3.71217H11.6052C12.5727 3.71217 13.361 4.48035 13.361 5.42321V7.28043C13.361 7.71255 13.0015 8.06285 12.5581 8.06285H7.79361C7.35019 8.06285 6.99072 7.71255 6.99072 7.28043V5.42321Z" fill="#A3B2FF"/>
<path id="add" d="M19.3922 0.00396729C19.1885 0.00396729 18.9932 0.0828202 18.8491 0.223179C18.7051 0.363538 18.6242 0.553906 18.6242 0.752404V3.74615H15.5522C15.3485 3.74615 15.1532 3.825 15.0091 3.96536C14.8651 4.10572 14.7842 4.29609 14.7842 4.49459C14.7842 4.69308 14.8651 4.88345 15.0091 5.02381C15.1532 5.16417 15.3485 5.24302 15.5522 5.24302H18.6242V8.23677C18.6242 8.43527 18.7051 8.62564 18.8491 8.766C18.9932 8.90635 19.1885 8.98521 19.3922 8.98521C19.5959 8.98521 19.7912 8.90635 19.9353 8.766C20.0793 8.62564 20.1602 8.43527 20.1602 8.23677V5.24302H23.2322C23.4359 5.24302 23.6312 5.16417 23.7753 5.02381C23.9193 4.88345 24.0002 4.69308 24.0002 4.49459C24.0002 4.29609 23.9193 4.10572 23.7753 3.96536C23.6312 3.825 23.4359 3.74615 23.2322 3.74615H20.1602V0.752404C20.1602 0.553906 20.0793 0.363538 19.9353 0.223179C19.7912 0.0828202 19.5959 0.00396729 19.3922 0.00396729Z" fill="#A3B2FF"/>
</g>
</svg>
