<svg width="24" height="24" viewBox="0 0 24 24" fill="none" xmlns="http://www.w3.org/2000/svg">
<path id="&#236;&#156;&#160;&#237;&#139;&#184; 19 &#235;&#161;&#156;&#235;&#180;&#135;" fill-rule="evenodd" clip-rule="evenodd" d="M9.20833 2.63607C9.20833 1.18019 10.4583 0 12 0C13.5417 0 14.7917 1.18019 14.7917 2.63607C14.7917 3.87497 13.8865 4.91425 12.6667 5.19649V6.68852H17.6667C19.5997 6.68852 21.1667 8.16819 21.1667 9.99344V14.0066C21.1667 15.8319 19.5997 17.3115 17.6667 17.3115H12.6667V18.7279H20.5C22.433 18.7279 24 20.2075 24 22.0328V24H0V22.0328C0 20.2075 1.56701 18.7279 3.5 18.7279H11.3333V17.3115H6.33333C4.40034 17.3115 2.83333 15.8319 2.83333 14.0066V9.99344C2.83333 8.16819 4.40034 6.68852 6.33333 6.68852H11.3333V5.19649C10.1135 4.91425 9.20833 3.87497 9.20833 2.63607ZM12 1.25902C11.1946 1.25902 10.5417 1.87555 10.5417 2.63607C10.5417 3.39658 11.1946 4.01311 12 4.01311C12.8054 4.01311 13.4583 3.39658 13.4583 2.63607C13.4583 1.87555 12.8054 1.25902 12 1.25902ZM6.33333 7.94754C5.13672 7.94754 4.16667 8.86352 4.16667 9.99344V14.0066C4.16667 15.1365 5.13671 16.0525 6.33333 16.0525H17.6667C18.8633 16.0525 19.8333 15.1365 19.8333 14.0066V9.99344C19.8333 8.86352 18.8633 7.94754 17.6667 7.94754H6.33333ZM9.16667 11.2918C8.75245 11.2918 8.41667 11.6089 8.41667 12C8.41667 12.3911 8.75245 12.7082 9.16667 12.7082C9.5809 12.7082 9.91667 12.3911 9.91667 12C9.91667 11.6089 9.5809 11.2918 9.16667 11.2918ZM7.08333 12C7.08333 10.9135 8.01609 10.0328 9.16667 10.0328C10.3173 10.0328 11.25 10.9135 11.25 12C11.25 13.0865 10.3173 13.9672 9.16667 13.9672C8.01609 13.9672 7.08333 13.0865 7.08333 12ZM14.8333 11.2918C14.4191 11.2918 14.0833 11.6089 14.0833 12C14.0833 12.3911 14.4191 12.7082 14.8333 12.7082C15.2476 12.7082 15.5833 12.3911 15.5833 12C15.5833 11.6089 15.2476 11.2918 14.8333 11.2918ZM12.75 12C12.75 10.9135 13.6827 10.0328 14.8333 10.0328C15.9839 10.0328 16.9167 10.9135 16.9167 12C16.9167 13.0865 15.9839 13.9672 14.8333 13.9672C13.6827 13.9672 12.75 13.0865 12.75 12ZM3.5 19.9869C2.30338 19.9869 1.33333 20.9028 1.33333 22.0328V22.741H22.6667V22.0328C22.6667 20.9028 21.6967 19.9869 20.5 19.9869H3.5Z" fill="#A3B2FF"/>
</svg>
