<svg width="34" height="34" viewBox="0 0 34 34" fill="none" xmlns="http://www.w3.org/2000/svg">
<g id="&#236;&#156;&#160;&#237;&#139;&#184; 21 &#236;&#130;&#172;&#236;&#154;&#169;&#236;&#158;&#144; &#236;&#160;&#149;&#235;&#179;&#180;">
<rect id="Rectangle 652" width="34" height="34" rx="6" fill="#607BFF"/>
<path id="Vector" d="M16.7769 12.3858C18.7916 12.3858 20.4249 10.5855 20.4249 8.36467C20.4249 6.14387 18.7916 4.34357 16.7769 4.34357C14.7622 4.34357 13.1289 6.14387 13.1289 8.36467C13.1289 10.5855 14.7622 12.3858 16.7769 12.3858Z" stroke="white" stroke-width="1.5" stroke-miterlimit="10"/>
<path id="Vector_2" d="M16.7772 26.6114C13.8076 26.6114 11.0625 24.8662 9.5763 22.0329L9.17148 21.2626C7.95422 18.9428 9.47371 16.0422 11.9027 16.0422H21.6518C24.0835 16.0422 25.6002 18.9428 24.383 21.2626L23.9782 22.0329C22.4919 24.8662 19.7469 26.6114 16.7772 26.6114Z" stroke="white" stroke-width="1.5" stroke-miterlimit="10"/>
</g>
</svg>
