<svg width="24" height="24" viewBox="0 0 24 24" fill="none" xmlns="http://www.w3.org/2000/svg">
<path id="&#236;&#156;&#160;&#237;&#139;&#184; 14 &#237;&#143;&#180;&#235;&#166;&#172;&#234;&#179;&#164;" d="M24 3.42745C24.0016 2.53565 23.6549 1.67846 23.0338 1.0385C22.4127 0.398536 21.5662 0.0263935 20.6747 0.00135063C19.7832 -0.0236922 18.9172 0.300344 18.2611 0.904426C17.605 1.50851 17.2108 2.34488 17.1623 3.23537L6.50262 5.36682C6.25334 4.84886 5.87752 4.40208 5.40988 4.06779C4.94225 3.73349 4.39789 3.52245 3.82711 3.45418C3.25634 3.38591 2.67756 3.4626 2.14427 3.67718C1.61097 3.89175 1.14037 4.23728 0.775954 4.68183C0.411536 5.12639 0.165057 5.65562 0.059296 6.22063C-0.0464648 6.78563 -0.0080952 7.36818 0.170859 7.91444C0.349813 8.46069 0.663578 8.95303 1.08316 9.34595C1.50274 9.73887 2.01459 10.0197 2.57142 10.1625V17.2629C1.98666 17.4128 1.45199 17.7148 1.02168 18.1382C0.591382 18.5616 0.280774 19.0913 0.121392 19.6736C-0.0379896 20.2558 -0.0404688 20.8698 0.114206 21.4533C0.268881 22.0368 0.575202 22.569 1.00207 22.9959C1.42894 23.4227 1.96116 23.729 2.54469 23.8837C3.12822 24.0384 3.74229 24.0359 4.32456 23.8765C4.90682 23.7171 5.43655 23.4066 5.85996 22.9763C6.28336 22.546 6.58538 22.0113 6.73534 21.4266H13.8361C13.9786 21.9839 14.2593 22.4962 14.6523 22.9162C15.0453 23.3363 15.5378 23.6504 16.0844 23.8297C16.631 24.0089 17.2139 24.0474 17.7794 23.9417C18.3448 23.836 18.8744 23.5894 19.3192 23.2247C19.7641 22.8601 20.1098 22.3892 20.3244 21.8555C20.5391 21.3218 20.6157 20.7427 20.5471 20.1716C20.4786 19.6005 20.2672 19.0559 19.9324 18.5882C19.5976 18.1204 19.1503 17.7447 18.6318 17.4956L20.7635 6.83658C21.6362 6.78875 22.4576 6.40902 23.0593 5.77518C23.661 5.14135 23.9976 4.3014 24 3.42745ZM20.5714 1.71324C20.9105 1.71324 21.2419 1.81378 21.5238 2.00214C21.8057 2.1905 22.0255 2.45822 22.1552 2.77145C22.285 3.08468 22.3189 3.42935 22.2528 3.76187C22.1866 4.0944 22.0234 4.39984 21.7836 4.63958C21.5439 4.87931 21.2384 5.04257 20.9059 5.10872C20.5733 5.17486 20.2286 5.14091 19.9154 5.01117C19.6021 4.88142 19.3344 4.66171 19.146 4.37981C18.9577 4.09791 18.8571 3.76649 18.8571 3.42745C18.8577 2.97297 19.0384 2.53726 19.3598 2.2159C19.6812 1.89454 20.1169 1.71376 20.5714 1.71324ZM1.71428 6.85586C1.71428 6.51682 1.81482 6.1854 2.00319 5.9035C2.19156 5.6216 2.45929 5.40188 2.77254 5.27214C3.08578 5.1424 3.43047 5.10845 3.763 5.17459C4.09554 5.24074 4.401 5.404 4.64075 5.64373C4.88049 5.88347 5.04376 6.18891 5.10991 6.52144C5.17606 6.85396 5.14211 7.19863 5.01236 7.51186C4.88261 7.82509 4.66288 8.09281 4.38097 8.28117C4.09906 8.46953 3.76762 8.57007 3.42856 8.57007C2.97407 8.56954 2.53834 8.38877 2.21696 8.06741C1.89558 7.74605 1.7148 7.31034 1.71428 6.85586ZM3.42856 22.2837C3.08951 22.2837 2.75807 22.1832 2.47616 21.9948C2.19425 21.8065 1.97452 21.5387 1.84477 21.2255C1.71502 20.9123 1.68107 20.5676 1.74722 20.2351C1.81336 19.9026 1.97663 19.5971 2.21638 19.3574C2.45613 19.1176 2.76158 18.9544 3.09412 18.8882C3.42666 18.8221 3.77135 18.856 4.08459 18.9858C4.39784 19.1155 4.66557 19.3352 4.85394 19.6171C5.04231 19.899 5.14285 20.2305 5.14285 20.5695C5.14233 21.024 4.96155 21.4597 4.64017 21.7811C4.31879 22.1024 3.88306 22.2832 3.42856 22.2837ZM13.8361 19.7124H6.73534C6.58178 19.1232 6.27382 18.5855 5.84323 18.155C5.41263 17.7244 4.87498 17.4164 4.28571 17.2629V10.1625C4.98605 9.98037 5.61051 9.58066 6.06912 9.02094C6.52774 8.46122 6.79685 7.77038 6.83768 7.04794L17.4974 4.91649C17.8335 5.60725 18.3917 6.1653 19.0825 6.50136L16.9508 17.1604C16.2283 17.2013 15.5374 17.4704 14.9777 17.929C14.4179 18.3876 14.0182 19.0121 13.8361 19.7124ZM17.1429 22.2837C16.8038 22.2837 16.4724 22.1832 16.1904 21.9948C15.9085 21.8065 15.6888 21.5387 15.5591 21.2255C15.4293 20.9123 15.3954 20.5676 15.4615 20.2351C15.5277 19.9026 15.6909 19.5971 15.9307 19.3574C16.1704 19.1176 16.4759 18.9544 16.8084 18.8882C17.141 18.8221 17.4856 18.856 17.7989 18.9858C18.1121 19.1155 18.3799 19.3352 18.5682 19.6171C18.7566 19.899 18.8571 20.2305 18.8571 20.5695C18.8566 21.024 18.6758 21.4597 18.3545 21.7811C18.0331 22.1024 17.5973 22.2832 17.1429 22.2837Z" fill="#A3B2FF"/>
</svg>
