<svg width="24" height="24" viewBox="0 0 24 24" fill="none" xmlns="http://www.w3.org/2000/svg">
<g id="&#236;&#156;&#160;&#237;&#139;&#184;3 &#236;&#156;&#132;&#236;&#132;&#177;">
<path id="Vector" d="M10.2896 0H13.7104C14.8628 0 15.8034 1.17444 15.8034 2.61309V4.85231H16.5512V1.9077C16.5512 1.49366 16.8202 1.15816 17.1515 1.15816H23.3997C23.731 1.15816 24 1.49366 24 1.9077V9.29601C24 9.71005 23.731 10.0455 23.3997 10.0455H17.1515C16.8202 10.0455 16.5512 9.71005 16.5512 9.29601V6.3514H15.8034V11.3289C15.8034 12.7676 14.8628 13.942 13.7104 13.942H10.2896C9.13717 13.942 8.19661 12.7676 8.19661 11.3289V6.3514H7.4488V9.29601C7.4488 9.71005 7.17983 10.0455 6.84853 10.0455H0.600275C0.268979 10.0455 0 9.71005 0 9.29601V1.9077C0 1.49366 0.268979 1.15816 0.600275 1.15816H6.84853C7.17983 1.15816 7.4488 1.49366 7.4488 1.9077V4.85231H8.19661V2.61309C8.19661 1.17444 9.13717 0 10.2896 0ZM20.8757 2.65724V4.85231H22.7994V2.65724H20.8757ZM20.8757 6.3514V8.54646H22.7994V6.3514H20.8757ZM19.6752 8.54646V6.3514H17.7517V8.54646H19.6752ZM19.6752 4.85231V2.65724H17.7517V4.85231H19.6752ZM1.20055 4.85231H3.12427V2.65724H1.20055V4.85231ZM4.32482 4.85231H6.24825V2.65724H4.32482V4.85231ZM6.24825 6.3514H4.32482V8.54646H6.24825V6.3514ZM3.12427 6.3514H1.20055V8.54646H3.12427V6.3514ZM12.6003 7.56565V12.4429H13.7104C14.1999 12.4429 14.6028 11.9399 14.6028 11.3289C14.6028 8.42377 14.6028 5.51861 14.6028 2.61309C14.6028 2.00216 14.1999 1.49909 13.7104 1.49909H10.2896C9.80005 1.49909 9.39716 2.00216 9.39716 2.61309V11.3289C9.39716 11.9399 9.80005 12.4429 10.2896 12.4429H11.3997V7.56565H10.8415C9.93367 7.56565 10.2412 5.22871 10.2412 4.3876C10.2412 3.97392 10.5099 3.63805 10.8415 3.63805H13.1585C13.4901 3.63805 13.7588 3.97392 13.7588 4.3876V6.8161C13.7588 7.22978 13.4901 7.56565 13.1585 7.56565H12.6003ZM12.5582 5.13714H11.4418V6.06656H12.5582V5.13714Z" fill="#A3B2FF"/>
<path id="Vector 46 (Stroke)" fill-rule="evenodd" clip-rule="evenodd" d="M9.36333 16.1646C9.17626 15.8187 8.80449 15.7298 8.53143 15.9664C8.25752 16.2037 8.18665 16.6786 8.37314 17.0271L8.8691 16.5975C8.37314 17.0271 8.37345 17.0277 8.37345 17.0277L8.37379 17.0283L8.37454 17.0297L8.37634 17.0331L8.38117 17.0419C8.38494 17.0487 8.38981 17.0574 8.39577 17.0679C8.40768 17.0888 8.42399 17.1168 8.44469 17.1508C8.48606 17.2187 8.54519 17.311 8.62206 17.4196C8.77535 17.6362 9.00177 17.921 9.30126 18.2053C9.90139 18.775 10.8068 19.3527 11.9995 19.3527C13.1923 19.3527 14.0977 18.775 14.6978 18.2053C14.9973 17.921 15.2237 17.6362 15.377 17.4196C15.4539 17.311 15.513 17.2187 15.5544 17.1508C15.5751 17.1168 15.5914 17.0888 15.6033 17.0679C15.6093 17.0574 15.6141 17.0487 15.6179 17.0419L15.6227 17.0331L15.6245 17.0297L15.6256 17.0277C15.6256 17.0277 15.6259 17.0271 15.13 16.5975L15.6259 17.0271C15.8124 16.6786 15.7416 16.2037 15.4676 15.9664C15.1946 15.7298 14.8228 15.8187 14.6357 16.1646M14.6357 16.1646L14.6317 16.1718C14.627 16.18 14.6184 16.1948 14.6059 16.2153C14.5809 16.2563 14.5407 16.3196 14.4854 16.3977C14.3743 16.5546 14.2053 16.7677 13.9803 16.9814C13.5314 17.4075 12.8716 17.8257 11.9995 17.8257C11.1275 17.8257 10.4677 17.4075 10.0188 16.9814C9.79379 16.7677 9.62474 16.5546 9.51369 16.3977C9.45839 16.3196 9.41814 16.2563 9.39316 16.2153C9.38069 16.1948 9.37209 16.18 9.36738 16.1718L9.36333 16.1646" fill="#A3B2FF"/>
<path id="Vector 47 (Stroke)" fill-rule="evenodd" clip-rule="evenodd" d="M5.40106 18.622C5.67456 18.385 6.04708 18.4746 6.23385 18.8219L6.23602 18.8258C6.23849 18.8303 6.24298 18.8383 6.24948 18.8498C6.2625 18.8726 6.28355 18.9088 6.31261 18.9565C6.37076 19.052 6.46071 19.193 6.5821 19.3645C6.82531 19.7081 7.19209 20.1703 7.67938 20.6329C8.65279 21.5569 10.0952 22.473 11.9996 22.473C13.904 22.473 15.3464 21.5569 16.3198 20.6329C16.8071 20.1703 17.1739 19.7081 17.4171 19.3645C17.5385 19.193 17.6284 19.052 17.6866 18.9565C17.7156 18.9088 17.7367 18.8726 17.7497 18.8498C17.7562 18.8383 17.7607 18.8303 17.7632 18.8258L17.7645 18.8234C17.7646 18.8232 17.7647 18.8231 17.7648 18.8229C17.7649 18.8228 17.7649 18.8226 17.765 18.8225C17.7651 18.8223 17.7652 18.8221 17.7653 18.8219C17.7653 18.8219 17.7653 18.8219 17.7653 18.8219C17.9521 18.4746 18.3246 18.385 18.5981 18.622C18.8721 18.8593 18.9429 19.3342 18.7564 19.6828L18.2866 19.2757C18.7564 19.6828 18.7563 19.6831 18.7561 19.6834L18.7557 19.6841L18.7548 19.6857L18.7525 19.6902L18.7453 19.7033C18.7394 19.7139 18.7314 19.7282 18.7213 19.7459C18.7011 19.7814 18.6723 19.8308 18.6351 19.892C18.5605 20.0144 18.4517 20.1845 18.3087 20.3865C18.0233 20.7898 17.5991 21.3235 17.0374 21.8568C15.9127 22.9244 14.2247 24 11.9996 24C9.77449 24 8.08647 22.9244 6.96182 21.8568C6.40008 21.3235 5.97593 20.7898 5.69046 20.3865C5.54751 20.1845 5.43868 20.0144 5.36415 19.892C5.32686 19.8308 5.29809 19.7814 5.27787 19.7459C5.26775 19.7282 5.25977 19.7139 5.25392 19.7033L5.24675 19.6902L5.24436 19.6857L5.24347 19.6841L5.24309 19.6834C5.24293 19.6831 5.24277 19.6828 5.73873 19.2531L5.24277 19.6828C5.05628 19.3342 5.12714 18.8593 5.40106 18.622Z" fill="#A3B2FF"/>
</g>
</svg>
