<svg width="24" height="24" viewBox="0 0 24 24" fill="none" xmlns="http://www.w3.org/2000/svg">
<g id="&#236;&#156;&#160;&#237;&#139;&#184; 10 &#237;&#143;&#172;&#235;&#143;&#132;&#236;&#149;&#140;">
<path id="Ellipse 114 (Stroke)" fill-rule="evenodd" clip-rule="evenodd" d="M5.38323 11.5907C5.63132 10.6955 5.16312 9.75169 4.33749 9.48269C3.51186 9.21369 2.64144 9.72135 2.39335 10.6166C2.14526 11.5118 2.61345 12.4556 3.43908 12.7246C4.26472 12.9936 5.13514 12.4859 5.38323 11.5907ZM6.87817 12.0778C7.37434 10.2873 6.43796 8.39975 4.7867 7.86176C3.13543 7.32376 1.39459 8.33906 0.898408 10.1295C0.402231 11.9199 1.33861 13.8075 2.98988 14.3455C4.64114 14.8835 6.38199 13.8682 6.87817 12.0778Z" fill="#A3B2FF"/>
<path id="Ellipse 116 (Stroke)" fill-rule="evenodd" clip-rule="evenodd" d="M9.06756 19.8601C9.15025 19.5617 8.99419 19.2471 8.71898 19.1575C8.44377 19.0678 8.15363 19.237 8.07093 19.5354C7.98823 19.8338 8.1443 20.1484 8.41951 20.2381C8.69472 20.3278 8.98486 20.1585 9.06756 19.8601ZM10.5625 20.3472C10.8933 19.1536 10.269 17.8952 9.16818 17.5365C8.06734 17.1779 6.90677 17.8547 6.57599 19.0484C6.2452 20.242 6.86946 21.5004 7.9703 21.859C9.07115 22.2177 10.2317 21.5408 10.5625 20.3472Z" fill="#A3B2FF"/>
<path id="Vector 57 (Stroke)" fill-rule="evenodd" clip-rule="evenodd" d="M3.54746 5.4744C3.66214 5.02387 4.09195 4.75944 4.50746 4.88379C4.9605 5.01936 5.41726 5.19691 5.86472 5.42563C6.25461 5.62493 6.42168 6.12921 6.23787 6.55196C6.05406 6.97472 5.58898 7.15587 5.19909 6.95657C4.84016 6.7731 4.4681 6.62782 4.09217 6.51532C3.67665 6.39097 3.43278 5.92494 3.54746 5.4744ZM7.10984 7.24756C7.43538 6.94121 7.92833 6.97901 8.21086 7.33199C8.5228 7.7217 8.8065 8.15877 9.05426 8.64708C9.21089 8.95578 9.37069 9.28909 9.53256 9.64217C9.72444 10.0607 9.56707 10.5686 9.18108 10.7767C8.79509 10.9847 8.32664 10.8141 8.13477 10.3956C7.98065 10.0594 7.83092 9.74735 7.6866 9.46291C7.49217 9.07972 7.2718 8.74101 7.03197 8.44137C6.74943 8.08839 6.7843 7.5539 7.10984 7.24756ZM9.50651 1.55923C9.92749 1.45881 10.3438 1.74744 10.4365 2.2039C10.5256 2.64319 10.6204 3.09538 10.7213 3.55806C10.8204 4.0129 10.5608 4.46879 10.1413 4.57631C9.72178 4.68383 9.30133 4.40226 9.20217 3.94742C9.0993 3.47556 9.00269 3.01478 8.91195 2.56756C8.81933 2.1111 9.08552 1.65965 9.50651 1.55923ZM10.3939 5.65501C10.8095 5.53136 11.239 5.7965 11.353 6.24723C11.5735 7.1185 11.8149 8.00779 12.0793 8.90189C12.2109 9.34695 11.9849 9.82343 11.5744 9.96614C11.1639 10.1089 10.7245 9.86375 10.5929 9.41869C10.321 8.49926 10.0733 7.58679 9.84768 6.69502C9.73364 6.2443 9.97817 5.77867 10.3939 5.65501ZM9.36623 11.2182C9.76067 11.0297 10.2214 11.2236 10.3952 11.6513C10.6575 12.2967 10.9227 12.977 11.1865 13.6759C11.3498 14.1085 11.1588 14.6027 10.7598 14.7797C10.3609 14.9567 9.90514 14.7496 9.74186 14.3171C9.48227 13.6293 9.22258 12.9632 8.96681 12.3339C8.79296 11.9062 8.97179 11.4067 9.36623 11.2182ZM11.9108 11.0177C12.3139 10.8522 12.7645 11.0724 12.9171 11.5095C13.067 11.9389 13.2226 12.3662 13.3842 12.7899C13.5253 13.1598 13.6802 13.5041 13.8469 13.825C14.0584 14.2322 13.9254 14.7483 13.5498 14.9776C13.1742 15.207 12.6983 15.0627 12.4868 14.6555C12.2887 14.2742 12.1064 13.8684 11.9417 13.4367C11.7738 12.9963 11.6124 12.5532 11.4572 12.1087C11.3046 11.6716 11.5077 11.1831 11.9108 11.0177ZM10.9244 15.23C11.3262 15.0609 11.7784 15.2771 11.9343 15.7128C12.1785 16.3952 12.4185 17.0817 12.6508 17.759C12.8011 18.1971 12.5953 18.6843 12.1913 18.8472C11.7873 19.0101 11.338 18.787 11.1877 18.349C10.9577 17.6783 10.7203 16.9992 10.4791 16.3251C10.3231 15.8894 10.5225 15.3991 10.9244 15.23ZM12.3443 19.3023C12.7501 19.1446 13.1969 19.3735 13.3423 19.8134C13.4582 20.164 13.5708 20.5078 13.6795 20.8428C13.8226 21.2836 13.6091 21.7668 13.2025 21.922C12.7959 22.0772 12.3502 21.8456 12.2071 21.4047C12.0993 21.0727 11.9877 20.7319 11.8729 20.3844C11.7275 19.9444 11.9385 19.4599 12.3443 19.3023ZM14.0023 15.6342C14.3081 15.3048 14.8023 15.3066 15.1061 15.6382C15.6197 16.1988 16.1834 16.6526 16.7712 17.0216C17.1442 17.2558 17.2715 17.7736 17.0555 18.178C16.8395 18.5825 16.362 18.7205 15.989 18.4864C15.2948 18.0505 14.6189 17.508 13.9986 16.831C13.6949 16.4994 13.6965 15.9636 14.0023 15.6342ZM17.7491 18.4978C17.88 18.0525 18.3191 17.8065 18.7298 17.9485C19.0839 18.0709 19.4355 18.172 19.7791 18.2563C20.1996 18.3594 20.4633 18.8125 20.3682 19.2684C20.2732 19.7242 19.8553 20.0102 19.4348 19.9071C19.0528 19.8134 18.6574 19.6999 18.2557 19.5611C17.845 19.4191 17.6182 18.9431 17.7491 18.4978Z" fill="#A3B2FF"/>
<path id="Ellipse 117 (Stroke)" fill-rule="evenodd" clip-rule="evenodd" d="M17.948 13.8136C18.9538 13.8136 19.7692 12.9295 19.7692 11.839C19.7692 10.7484 18.9538 9.86437 17.948 9.86437C16.9422 9.86437 16.1269 10.7484 16.1269 11.839C16.1269 12.9295 16.9422 13.8136 17.948 13.8136ZM17.948 15.5061C19.8159 15.5061 21.3301 13.8643 21.3301 11.839C21.3301 9.81368 19.8159 8.17184 17.948 8.17184C16.0801 8.17184 14.5659 9.81368 14.5659 11.839C14.5659 13.8643 16.0801 15.5061 17.948 15.5061Z" fill="#A3B2FF"/>
</g>
</svg>
