<svg width="24" height="24" viewBox="0 0 24 24" fill="none" xmlns="http://www.w3.org/2000/svg">
<path id="&#236;&#156;&#160;&#237;&#139;&#184; 17 &#234;&#176;&#128;&#235;&#161;&#156;&#234;&#183;&#184;&#235;&#158;&#152;&#237;&#148;&#132;" fill-rule="evenodd" clip-rule="evenodd" d="M2.99906 7.86218e-07C2.99672 0.00015634 2.99437 0.000330292 2.99203 0.000522616C2.90562 0.00202922 2.82103 0.0284437 2.74651 0.0771896C2.672 0.125935 2.61011 0.195348 2.56687 0.278658L0.0670313 5.09932C0.0231584 5.18395 6.80254e-05 5.27994 8.05513e-05 5.37766C9.30771e-05 5.47537 0.0232081 5.57135 0.0671026 5.65597C0.110997 5.74058 0.174125 5.81084 0.250141 5.85969C0.326157 5.90854 0.412384 5.93425 0.500156 5.93425H5.50031C5.58805 5.93416 5.67421 5.90838 5.75016 5.8595C5.82611 5.81061 5.88918 5.74034 5.93301 5.65574C5.97685 5.57114 5.99993 5.47519 5.99992 5.37753C5.99991 5.27986 5.97682 5.18391 5.93297 5.09932L3.43313 0.278658C3.38919 0.193808 3.32592 0.123365 3.24971 0.074439C3.1735 0.025513 3.08704 -0.000163793 2.99906 7.86218e-07ZM9.6 2.51157V4.38181H13.2V2.51157H9.6ZM14.88 2.51157V4.38181H24V2.51157H14.88ZM0.500156 9.24056C0.434471 9.24055 0.369426 9.25494 0.308738 9.28292C0.24805 9.31089 0.192908 9.3519 0.146461 9.40361C0.100015 9.45532 0.063174 9.5167 0.0380437 9.58426C0.0129135 9.65182 -1.39372e-05 9.72423 1.12757e-08 9.79736L1.12757e-08 14.2501C-1.39372e-05 14.3233 0.0129135 14.3957 0.0380437 14.4632C0.063174 14.5308 0.100015 14.5922 0.146461 14.6439C0.192908 14.6956 0.24805 14.7366 0.308738 14.7646C0.369426 14.7925 0.434471 14.8069 0.500156 14.8069H5.49984C5.56553 14.8069 5.63057 14.7925 5.69126 14.7646C5.75195 14.7366 5.80709 14.6956 5.85354 14.6439C5.89999 14.5922 5.93683 14.5308 5.96196 14.4632C5.98709 14.3957 6.00001 14.3233 6 14.2501V9.79736C6.00001 9.72423 5.98709 9.65182 5.96196 9.58426C5.93683 9.5167 5.89999 9.45532 5.85354 9.40361C5.80709 9.3519 5.75195 9.31089 5.69126 9.28292C5.63057 9.25494 5.56553 9.24055 5.49984 9.24056H0.500156ZM9.6 11.4223V13.2926H16.08V11.4223H9.6ZM17.76 11.4223V13.2926H24V11.4223H17.76ZM3 17.3206C1.34907 17.3206 1.12757e-08 18.8224 1.12757e-08 20.6603C1.12757e-08 22.4982 1.34907 24 3 24C4.65093 24 6 22.4982 6 20.6603C6 18.8224 4.65093 17.3206 3 17.3206ZM9.6 20.3331V22.2033H13.2V20.3331H9.6ZM14.88 20.3331V22.2033H24V20.3331H14.88Z" fill="#A3B2FF"/>
</svg>
