<svg width="24" height="24" viewBox="0 0 24 24" fill="none" xmlns="http://www.w3.org/2000/svg">
<g id="&#236;&#156;&#160;&#237;&#139;&#184; 18 &#235;&#176;&#148;&#237;&#133;&#128; &#236;&#149;&#161;&#236;&#158;&#144;">
<path id="Vector (Stroke)" fill-rule="evenodd" clip-rule="evenodd" d="M20.5714 1.61538H3.42857C2.36149 1.61538 1.42574 2.63812 1.42574 4V20C1.42574 21.3619 2.36149 22.3846 3.42857 22.3846H20.5714C21.6385 22.3846 22.5743 21.3619 22.5743 20V4C22.5743 2.63812 21.6385 1.61538 20.5714 1.61538ZM20.5714 0H3.42857C1.53502 0 0 1.79086 0 4V20C0 22.2091 1.53502 24 3.42857 24H20.5714C22.465 24 24 22.2091 24 20V4C24 1.79086 22.465 0 20.5714 0Z" fill="#A3B2FF"/>
<path id="Vector" fill-rule="evenodd" clip-rule="evenodd" d="M14.3594 12H17.8899C18.8647 12 19.6551 12.8955 19.6551 14V18C19.6551 19.1046 18.8647 20 17.8899 20H14.3594C13.3845 20 12.5942 19.1046 12.5942 18V14C12.5942 12.8955 13.3845 12 14.3594 12Z" fill="#A3B2FF"/>
<path id="Vector (Stroke)_2" fill-rule="evenodd" clip-rule="evenodd" d="M14.3596 12.5385C13.6472 12.5385 13.0696 13.1928 13.0696 14V18C13.0696 18.8072 13.6472 19.4616 14.3596 19.4616H17.89C18.6024 19.4616 19.18 18.8072 19.18 18V14C19.18 13.1928 18.6024 12.5385 17.89 12.5385H14.3596ZM12.1191 14C12.1191 12.5981 13.1222 11.4615 14.3596 11.4615H17.89C19.1274 11.4615 20.1305 12.5981 20.1305 14V18C20.1305 19.402 19.1274 20.5385 17.89 20.5385H14.3596C13.1222 20.5385 12.1191 19.402 12.1191 18V14Z" fill="#A3B2FF"/>
</g>
</svg>
